<svg width="41" height="41" viewBox="0 0 41 41" fill="none" xmlns="http://www.w3.org/2000/svg">
<g id="add-friend 1">
<g id="layer1">
<path id="circle2859" d="M19.569 1.86328C13.692 1.86328 8.89784 6.67385 8.89784 12.5508C8.89784 16.1433 10.6955 19.3264 13.4313 21.2625C7.0502 23.8193 2.52344 30.0584 2.52344 37.3383C2.5332 37.7782 2.71482 38.1968 3.02942 38.5045C3.34401 38.8122 3.76657 38.9846 4.20662 38.9846C4.64667 38.9846 5.06923 38.8122 5.38383 38.5045C5.69842 38.1968 5.88004 37.7782 5.88981 37.3383C5.88981 29.6124 12.1192 23.3862 19.8451 23.3862C22.542 23.3862 25.0454 24.1551 27.1762 25.4739C27.3648 25.591 27.5748 25.6697 27.7939 25.7057C28.0131 25.7416 28.2372 25.7339 28.4534 25.6831C28.6696 25.6323 28.8737 25.5394 29.0539 25.4096C29.2341 25.2798 29.387 25.1159 29.5037 24.927C29.6205 24.738 29.6988 24.5279 29.7342 24.3086C29.7696 24.0894 29.7615 23.8652 29.7102 23.6491C29.6589 23.433 29.5654 23.2291 29.4352 23.0492C29.305 22.8693 29.1406 22.7169 28.9514 22.6006C27.9913 22.0064 26.949 21.5412 25.8743 21.141C28.5218 19.1949 30.2565 16.0716 30.2565 12.5508C30.2565 6.67385 25.4459 1.86328 19.569 1.86328ZM19.569 5.23281C23.6266 5.23281 26.8902 8.49315 26.8902 12.5508C26.8902 16.6084 23.6266 19.8556 19.569 19.8556C15.5113 19.8556 12.2642 16.6084 12.2642 12.5508C12.2642 8.49315 15.5113 5.23281 19.569 5.23281ZM36.6046 25.4344C36.3311 25.4423 36.0635 25.5167 35.8252 25.6513C35.5869 25.7859 35.385 25.9767 35.2371 26.2069L29.4347 34.9024L25.7954 32.4663C25.6109 32.3422 25.4037 32.2558 25.1857 32.2119C24.9677 32.1681 24.7432 32.1677 24.525 32.2108C24.3069 32.2539 24.0994 32.3397 23.9144 32.4632C23.7294 32.5866 23.5707 32.7453 23.4472 32.9303C23.3237 33.1152 23.2379 33.3225 23.1947 33.5407C23.1515 33.7588 23.1519 33.9835 23.1956 34.2015C23.2394 34.4195 23.3258 34.6267 23.4498 34.8113C23.5738 34.9959 23.733 35.1541 23.9183 35.2771L28.9777 38.6435C29.162 38.7658 29.3686 38.8506 29.5857 38.893C29.8028 38.9353 30.0261 38.9344 30.2428 38.8904C30.4596 38.8465 30.6656 38.7603 30.849 38.6367C31.0324 38.5131 31.1897 38.3546 31.3118 38.1702L38.0478 28.0678C38.2235 27.8111 38.3246 27.5108 38.34 27.2002C38.3554 26.8895 38.2844 26.5806 38.1349 26.3079C37.9854 26.0351 37.7633 25.8092 37.4932 25.655C37.2231 25.5008 36.9155 25.4245 36.6046 25.4344Z" fill="#B25CF3"/>
</g>
</g>
</svg>
