<svg width="78" height="53" viewBox="0 0 78 53" fill="none" xmlns="http://www.w3.org/2000/svg">
<path d="M38.7947 45.596C38.7947 43.5298 40.4534 41.8743 42.5227 41.8743C44.5921 41.8743 46.2444 43.5298 46.2444 45.596C46.2461 46.0854 46.151 46.5702 45.9646 47.0227C45.7782 47.4752 45.5042 47.8863 45.1583 48.2325C44.8125 48.5787 44.4015 48.8531 43.9492 49.0399C43.4969 49.2266 43.0121 49.3222 42.5227 49.3209C42.0331 49.323 41.5479 49.2282 41.0951 49.042C40.6422 48.8558 40.2307 48.5819 39.8841 48.2359C39.5376 47.89 39.263 47.4789 39.076 47.0264C38.889 46.5739 38.7934 46.0856 38.7947 45.596ZM53.9508 45.5992C53.9508 43.5298 55.6095 41.8711 57.6757 41.8711C59.7419 41.8711 61.4006 43.5298 61.4006 45.596C61.4006 47.6622 59.7419 49.3209 57.6789 49.3209C57.1893 49.323 56.7041 49.2282 56.2512 49.042C55.7984 48.8558 55.3868 48.5819 55.0403 48.2359C54.6938 47.89 54.4191 47.4789 54.2321 47.0264C54.0452 46.5739 53.9496 46.0888 53.9508 45.5992ZM18.8196 45.5992C18.8196 43.5298 20.4783 41.8711 22.5445 41.8711C24.6106 41.8711 26.2661 43.5298 26.2661 45.596C26.2661 47.6622 24.6106 49.3209 22.5445 49.3209C22.0551 49.3226 21.5702 49.2275 21.1178 49.0411C20.6653 48.8547 20.2541 48.5807 19.9079 48.2348C19.5618 47.8889 19.2874 47.478 19.1006 47.0257C18.9138 46.5734 18.8183 46.0886 18.8196 45.5992ZM3.66342 45.5992C3.66342 43.5298 5.32212 41.8711 7.38829 41.8711C9.45446 41.8711 11.1132 43.5298 11.1132 45.596C11.1149 46.0856 11.0197 46.5708 10.8331 47.0235C10.6465 47.4761 10.3722 47.8874 10.026 48.2337C9.67973 48.5799 9.26843 48.8542 8.81574 49.0408C8.36306 49.2274 7.87792 49.3226 7.38829 49.3209C6.8992 49.3222 6.41468 49.2268 5.96257 49.0402C5.51046 48.8536 5.09969 48.5795 4.75384 48.2337C4.408 47.8878 4.13392 47.477 3.94733 47.0249C3.76075 46.5728 3.66215 46.0883 3.66342 45.5992ZM34.3062 39.0157H31.0658V52.0512H34.3062V39.0157ZM11.0875 52.0512H14.3279V39.0157H11.0875V40.0616C9.95677 39.278 8.61324 38.8592 7.2375 38.8617C3.50942 38.8617 0.5 41.8711 0.5 45.5992C0.5 49.3465 3.50942 52.3335 7.2375 52.3335C8.66521 52.3335 9.99025 51.9004 11.0875 51.1336V52.0512ZM61.3749 52.0512H64.6153V39.0157H61.3749V40.0616C60.2442 39.278 58.9007 38.8592 57.5249 38.8617C53.7968 38.8617 50.7874 41.8711 50.7874 45.5992C50.7836 46.4849 50.9553 47.3626 51.2925 48.1816C51.6298 49.0006 52.126 49.7446 52.7525 50.3707C53.3789 50.9969 54.1232 51.4927 54.9423 51.8296C55.7614 52.1665 56.6392 52.3377 57.5249 52.3335C58.9526 52.3335 60.2777 51.9004 61.3749 51.1336V52.0512ZM65.8152 47.8162C65.9179 50.447 68.1637 52.3078 71.9111 52.3078C74.975 52.3078 77.5 50.9796 77.5 48.0472C77.5 46.0067 76.3514 44.8068 73.6981 44.2934L71.632 43.8892C70.3037 43.6325 69.3861 43.3758 69.3861 42.5866C69.3861 41.7203 70.278 41.3353 71.401 41.3353C73.0372 41.3353 73.6981 42.1535 73.7495 43.1224H77.0155C76.8359 40.5718 74.7954 38.8617 71.5036 38.8617C68.1124 38.8617 66.0944 40.7225 66.0944 43.148C66.0944 46.1061 68.4942 46.5906 70.5604 46.9756L72.2704 47.2804C73.496 47.5114 74.0318 47.8675 74.0318 48.583C74.0318 49.2214 73.419 49.8567 71.9624 49.8567C69.8449 49.8567 69.1583 48.7594 69.1327 47.8162H65.8152ZM26.2437 34.5754V40.0616C25.1129 39.278 23.7694 38.8592 22.3937 38.8617C18.6656 38.8617 15.6562 41.8711 15.6562 45.5992C15.6562 49.3465 18.6656 52.3335 22.3937 52.3335C23.8182 52.3335 25.1464 51.9004 26.2437 51.1336V52.0512H29.4841V34.5754H26.2437ZM46.2188 34.5754V40.0616C45.088 39.278 43.7445 38.8592 42.3687 38.8617C38.6439 38.8617 35.6312 41.8711 35.6312 45.5992C35.6274 46.4849 35.7991 47.3626 36.1364 48.1816C36.4737 49.0006 36.9698 49.7446 37.5963 50.3707C38.2227 50.9969 38.967 51.4927 39.7861 51.8296C40.6053 52.1665 41.4831 52.3377 42.3687 52.3335C43.7965 52.3335 45.1215 51.9004 46.2188 51.1336V52.0512H49.4592V34.5754H46.2188ZM8.91867 30.7254L11.1132 34.5754H26.2437L20.2473 24.2157L8.92188 30.7222L8.91867 30.7254ZM34.3062 37.8158V34.5754H46.2188L33.5137 12.5823L22.1595 19.0888L31.0658 34.5754V37.8158H34.3062ZM51.0441 34.5754H66.197L46.6037 0.666504L35.2751 7.19867L51.0441 34.5754Z" fill="white"/>
</svg>
