<svg width="33" height="32" viewBox="0 0 33 32" fill="none" xmlns="http://www.w3.org/2000/svg">
<g clip-path="url(#clip0_266_17085)">
<path d="M29.9089 7.62665L23.7755 2.47998L22.0555 4.51998L28.1889 9.66665L29.9089 7.62665ZM11.0822 4.51998L9.37552 2.47998L3.24219 7.61331L4.96219 9.65331L11.0822 4.51998ZM17.2422 10.6666H15.2422V18.6666L21.5755 22.4666L22.5755 20.8266L17.2422 17.6666V10.6666ZM16.5755 5.33331C9.94885 5.33331 4.57552 10.7066 4.57552 17.3333C4.57552 23.96 9.93552 29.3333 16.5755 29.3333C23.2022 29.3333 28.5755 23.96 28.5755 17.3333C28.5755 10.7066 23.2022 5.33331 16.5755 5.33331ZM16.5755 26.6666C11.4155 26.6666 7.24219 22.4933 7.24219 17.3333C7.24219 12.1733 11.4155 7.99998 16.5755 7.99998C21.7355 7.99998 25.9089 12.1733 25.9089 17.3333C25.9089 22.4933 21.7355 26.6666 16.5755 26.6666Z" fill="#E4086F"/>
</g>
<defs>
<clipPath id="clip0_266_17085">
<rect width="32" height="32" fill="white" transform="translate(0.574219)"/>
</clipPath>
</defs>
</svg>
