<svg width="33" height="32" viewBox="0 0 33 32" fill="none" xmlns="http://www.w3.org/2000/svg">
<g clip-path="url(#clip0_266_17078)">
<path d="M25.9076 5.33317H24.5742V2.6665H21.9076V5.33317H11.2409V2.6665H8.57422V5.33317H7.24089C5.76089 5.33317 4.58755 6.53317 4.58755 7.99984L4.57422 26.6665C4.57422 28.1332 5.76089 29.3332 7.24089 29.3332H25.9076C27.3742 29.3332 28.5742 28.1332 28.5742 26.6665V7.99984C28.5742 6.53317 27.3742 5.33317 25.9076 5.33317ZM25.9076 26.6665H7.24089V13.3332H25.9076V26.6665ZM12.5742 18.6665H9.90755V15.9998H12.5742V18.6665ZM17.9076 18.6665H15.2409V15.9998H17.9076V18.6665ZM23.2409 18.6665H20.5742V15.9998H23.2409V18.6665ZM12.5742 23.9998H9.90755V21.3332H12.5742V23.9998ZM17.9076 23.9998H15.2409V21.3332H17.9076V23.9998ZM23.2409 23.9998H20.5742V21.3332H23.2409V23.9998Z" fill="#E4086F"/>
</g>
<defs>
<clipPath id="clip0_266_17078">
<rect width="32" height="32" fill="white" transform="translate(0.574219)"/>
</clipPath>
</defs>
</svg>
