<svg width="25" height="25" viewBox="0 0 25 25" fill="none" xmlns="http://www.w3.org/2000/svg">
<g id="jam:shopping-cart">
<path id="Vector" d="M10.8616 20.6566C10.3311 20.6566 9.82243 20.4459 9.44735 20.0708C9.07228 19.6958 8.86157 19.1871 8.86157 18.6566C8.86157 18.1262 9.07228 17.6175 9.44735 17.2424C9.82243 16.8673 10.3311 16.6566 10.8616 16.6566C11.392 16.6566 11.9007 16.8673 12.2758 17.2424C12.6509 17.6175 12.8616 18.1262 12.8616 18.6566C12.8616 19.1871 12.6509 19.6958 12.2758 20.0708C11.9007 20.4459 11.392 20.6566 10.8616 20.6566ZM17.8616 20.6566C17.3311 20.6566 16.8224 20.4459 16.4474 20.0708C16.0723 19.6958 15.8616 19.1871 15.8616 18.6566C15.8616 18.1262 16.0723 17.6175 16.4474 17.2424C16.8224 16.8673 17.3311 16.6566 17.8616 16.6566C18.392 16.6566 18.9007 16.8673 19.2758 17.2424C19.6509 17.6175 19.8616 18.1262 19.8616 18.6566C19.8616 19.1871 19.6509 19.6958 19.2758 20.0708C18.9007 20.4459 18.392 20.6566 17.8616 20.6566ZM4.82357 6.57962C4.57393 6.57156 4.33721 6.46674 4.16346 6.2873C3.98972 6.10786 3.89258 5.86788 3.89258 5.61812C3.89258 5.36835 3.98972 5.12837 4.16346 4.94893C4.33721 4.7695 4.57393 4.66467 4.82357 4.65662H5.97457C6.87657 4.65662 7.65657 5.28262 7.85257 6.16262L9.10557 11.8046C9.30157 12.6846 10.0816 13.3106 10.9836 13.3106H18.4956L19.9376 7.54062H10.5926C10.3453 7.52933 10.1119 7.42316 9.94085 7.24417C9.76984 7.06518 9.67442 6.82716 9.67442 6.57962C9.67442 6.33207 9.76984 6.09405 9.94085 5.91506C10.1119 5.73608 10.3453 5.6299 10.5926 5.61862H19.9376C20.2299 5.61853 20.5184 5.68509 20.7812 5.81325C21.0439 5.94141 21.274 6.12778 21.4539 6.3582C21.6338 6.58862 21.7588 6.85703 21.8194 7.14301C21.88 7.429 21.8746 7.72503 21.8036 8.00862L20.3616 13.7766C20.2576 14.1928 20.0175 14.5623 19.6794 14.8263C19.3412 15.0903 18.9245 15.2337 18.4956 15.2336H10.9836C10.1084 15.2337 9.25929 14.9353 8.57658 14.3877C7.89387 13.8401 7.41835 13.076 7.22857 12.2216L5.97457 6.57962H4.82357Z" fill="black"/>
</g>
</svg>
