<svg width="25" height="25" viewBox="0 0 25 25" fill="none" xmlns="http://www.w3.org/2000/svg">
<path d="M10.8596 20.6565C10.3292 20.6565 9.82047 20.4458 9.4454 20.0707C9.07033 19.6956 8.85961 19.1869 8.85961 18.6565C8.85961 18.1261 9.07033 17.6174 9.4454 17.2423C9.82047 16.8672 10.3292 16.6565 10.8596 16.6565C11.39 16.6565 11.8988 16.8672 12.2738 17.2423C12.6489 17.6174 12.8596 18.1261 12.8596 18.6565C12.8596 19.1869 12.6489 19.6956 12.2738 20.0707C11.8988 20.4458 11.39 20.6565 10.8596 20.6565ZM17.8596 20.6565C17.3292 20.6565 16.8205 20.4458 16.4454 20.0707C16.0703 19.6956 15.8596 19.1869 15.8596 18.6565C15.8596 18.1261 16.0703 17.6174 16.4454 17.2423C16.8205 16.8672 17.3292 16.6565 17.8596 16.6565C18.39 16.6565 18.8988 16.8672 19.2738 17.2423C19.6489 17.6174 19.8596 18.1261 19.8596 18.6565C19.8596 19.1869 19.6489 19.6956 19.2738 20.0707C18.8988 20.4458 18.39 20.6565 17.8596 20.6565ZM4.82161 6.57949C4.57197 6.57144 4.33525 6.46661 4.16151 6.28718C3.98777 6.10774 3.89062 5.86776 3.89062 5.61799C3.89062 5.36823 3.98777 5.12825 4.16151 4.94881C4.33525 4.76937 4.57197 4.66455 4.82161 4.65649H5.97261C6.87461 4.65649 7.65461 5.28249 7.85061 6.16249L9.10361 11.8045C9.29961 12.6845 10.0796 13.3105 10.9816 13.3105H18.4936L19.9356 7.54049H10.5906C10.3433 7.52921 10.1099 7.42303 9.9389 7.24405C9.76789 7.06506 9.67246 6.82704 9.67246 6.57949C9.67246 6.33195 9.76789 6.09393 9.9389 5.91494C10.1099 5.73596 10.3433 5.62978 10.5906 5.61849H19.9356C20.2279 5.61841 20.5165 5.68497 20.7792 5.81313C21.0419 5.94128 21.272 6.12766 21.4519 6.35808C21.6318 6.5885 21.7568 6.85691 21.8174 7.14289C21.878 7.42888 21.8726 7.72491 21.8016 8.00849L20.3596 13.7765C20.2557 14.1927 20.0155 14.5622 19.6774 14.8262C19.3393 15.0902 18.9226 15.2336 18.4936 15.2335H10.9816C10.1064 15.2336 9.25734 14.9352 8.57463 14.3876C7.89192 13.84 7.4164 13.0759 7.22661 12.2215L5.97261 6.57949H4.82161Z" fill="white"/>
</svg>
