<svg width="40" height="40" viewBox="0 0 40 40" fill="none" xmlns="http://www.w3.org/2000/svg">
<g id="checkout 1" clip-path="url(#clip0_266_21699)">
<g id="Group">
<path id="Vector" d="M22.4415 22.3747L29.729 15.0872L28.1223 13.4805L22.4415 19.1612L20.1692 16.8889L18.5625 18.4957L22.4415 22.3747Z" fill="#B25CF3"/>
<path id="Vector_2" d="M31.533 28.714H13.3546C12.7282 28.714 12.2185 28.2044 12.2185 27.5779C12.2185 26.9514 12.7282 26.4417 13.3546 26.4417H34.3593L39.5618 8.26335H10.3283L9.84742 6.31038L9.84659 6.31061C9.47969 4.82438 8.1357 3.71875 6.53774 3.71875H4.1897C2.31028 3.71875 0.78125 5.24778 0.78125 7.1272H3.05355C3.05355 6.50073 3.56323 5.99105 4.1897 5.99105H6.53774C7.16422 5.99105 7.67389 6.50073 7.67389 7.1272H7.70843L11.9767 24.4615C10.7819 24.9919 9.94619 26.1888 9.94619 27.5779C9.94619 29.4573 11.4752 30.9863 13.3546 30.9863H14.6862C14.5601 31.342 14.4908 31.7242 14.4908 32.1225C14.4908 34.0019 16.0198 35.5309 17.8992 35.5309C19.7787 35.5309 21.3077 34.0019 21.3077 32.1225C21.3077 31.7242 21.2384 31.342 21.1123 30.9863H28.3201C28.194 31.342 28.1247 31.7242 28.1247 32.1225C28.1247 34.0019 29.6537 35.5309 31.5331 35.5309C33.4125 35.5309 34.9416 34.0019 34.9416 32.1225C34.9416 30.2431 33.4125 28.714 31.533 28.714ZM36.5494 10.5356L32.6454 24.1694H14.245L10.8879 10.5356H36.5494ZM19.0354 32.1225C19.0354 32.749 18.5257 33.2586 17.8992 33.2586C17.2728 33.2586 16.7631 32.749 16.7631 32.1225C16.7631 31.496 17.2728 30.9863 17.8992 30.9863C18.5257 30.9863 19.0354 31.496 19.0354 32.1225ZM31.533 33.2586C30.9066 33.2586 30.3969 32.749 30.3969 32.1225C30.3969 31.496 30.9066 30.9863 31.533 30.9863C32.1595 30.9863 32.6692 31.496 32.6692 32.1225C32.6692 32.749 32.1595 33.2586 31.533 33.2586Z" fill="#B25CF3"/>
</g>
</g>
<defs>
<clipPath id="clip0_266_21699">
<rect width="38.7806" height="38.7806" fill="white" transform="translate(0.78125 0.234375)"/>
</clipPath>
</defs>
</svg>
