<svg width="83" height="83" viewBox="0 0 83 83" fill="none" xmlns="http://www.w3.org/2000/svg">
<g id="CheckCircle" clip-path="url(#clip0_266_17399)">
<path id="Vector" d="M41.4766 8.4502C34.888 8.4502 28.4474 10.4039 22.9691 14.0644C17.4909 17.7248 13.2212 22.9275 10.6998 29.0146C8.1785 35.1016 7.5188 41.7997 8.80417 48.2616C10.0895 54.7236 13.2622 60.6594 17.9211 65.3182C22.5799 69.977 28.5156 73.1497 34.9776 74.4351C41.4396 75.7205 48.1377 75.0608 54.2247 72.5394C60.3118 70.0181 65.5145 65.7483 69.1749 60.2701C72.8353 54.7919 74.7891 48.3513 74.7891 41.7627C74.7797 32.9305 71.2671 24.4628 65.0218 18.2175C58.7765 11.9722 50.3087 8.45952 41.4766 8.4502ZM56.102 35.8882L38.1645 53.8257C37.9266 54.0639 37.6439 54.2529 37.3329 54.3819C37.0218 54.5108 36.6883 54.5772 36.3516 54.5772C36.0148 54.5772 35.6814 54.5108 35.3703 54.3819C35.0592 54.2529 34.7766 54.0639 34.5386 53.8257L26.8511 46.1382C26.3703 45.6573 26.1002 45.0052 26.1002 44.3252C26.1002 43.6452 26.3703 42.9931 26.8511 42.5122C27.3319 42.0314 27.9841 41.7613 28.6641 41.7613C29.3441 41.7613 29.9962 42.0314 30.477 42.5122L36.3516 48.39L52.4761 32.2622C52.7142 32.0241 52.9968 31.8353 53.3079 31.7064C53.619 31.5776 53.9524 31.5113 54.2891 31.5113C54.6258 31.5113 54.9592 31.5776 55.2702 31.7064C55.5813 31.8353 55.864 32.0241 56.102 32.2622C56.3401 32.5003 56.529 32.783 56.6578 33.094C56.7867 33.4051 56.853 33.7385 56.853 34.0752C56.853 34.4119 56.7867 34.7453 56.6578 35.0564C56.529 35.3674 56.3401 35.6501 56.102 35.8882Z" fill="#30BD75"/>
</g>
<defs>
<clipPath id="clip0_266_17399">
<rect width="82" height="82" fill="white" transform="translate(0.476562 0.762695)"/>
</clipPath>
</defs>
</svg>
