<svg width="46" height="46" viewBox="0 0 46 46" fill="none" xmlns="http://www.w3.org/2000/svg">
<g id="product 1">
<path id="Product_Package" d="M42.9998 12.5004L23.2055 2.60323C22.9402 2.4708 22.6272 2.4708 22.3624 2.60323L2.56812 12.5004C2.24859 12.6601 2.04688 12.9863 2.04688 13.3435V33.1378C2.04688 33.495 2.24859 33.8211 2.56765 33.9809L22.3619 43.878C22.4948 43.9445 22.639 43.9775 22.7837 43.9775C22.9284 43.9775 23.0726 43.9445 23.2055 43.878L42.9998 33.9809C43.3188 33.8211 43.5206 33.495 43.5206 33.1378V13.3435C43.5206 12.9863 43.3188 12.6601 42.9998 12.5004ZM22.7837 4.50018L40.4704 13.3435L36.6868 15.2353L19.0007 6.39195L22.7837 4.50018ZM29.1462 19.0056L11.4595 10.1623L16.8926 7.44575L34.5792 16.2891L29.1462 19.0056ZM29.8531 20.7597L35.5086 17.932V24.9434L33.6998 23.6516C33.4948 23.505 33.2384 23.4471 32.99 23.4899C32.7416 23.5338 32.5206 23.6747 32.3769 23.8821L29.8531 27.5284V20.7597ZM9.3519 11.2161L27.0381 20.0594L22.7837 22.1868L5.09708 13.3435L9.3519 11.2161ZM3.93204 14.8686L21.8411 23.8231V41.5093L3.93204 32.5548V14.8686ZM23.7263 41.5098V23.8231L27.9679 21.7023V30.5457C27.9679 30.958 28.2356 31.3223 28.6291 31.4453C28.7225 31.4746 28.8167 31.4882 28.9105 31.4882C29.214 31.4882 29.5062 31.3412 29.6858 31.0825L33.3831 25.7422L35.904 27.5426C36.1915 27.7476 36.5695 27.7754 36.8829 27.6133C37.1963 27.4521 37.3938 27.1283 37.3938 26.7753V16.9894L41.6354 14.8686V32.5548L23.7263 41.5098Z" fill="#B25CF3"/>
</g>
</svg>
