<svg width="25" height="25" viewBox="0 0 25 25" fill="none" xmlns="http://www.w3.org/2000/svg">
<g id="devicon:facebook">
<path id="Vector" d="M20.062 4.31311H4.93798C4.41995 4.31311 4 4.73306 4 5.25109V20.3751C4 20.8932 4.41995 21.3131 4.93798 21.3131H20.062C20.5801 21.3131 21 20.8932 21 20.3751V5.25109C21 4.73306 20.5801 4.31311 20.062 4.31311Z" fill="#3D5A98"/>
<path id="Vector_2" d="M15.5432 21.3131V14.927H17.6069L17.9155 12.4384H15.5432V10.8499C15.5432 10.1295 15.7364 9.63758 16.7307 9.63758H18V7.40809C17.3853 7.34169 16.7677 7.31006 16.1497 7.31334C14.3222 7.31334 13.0636 8.46989 13.0636 10.6032V12.4384H11V14.927H13.0636V21.3131H15.5432Z" fill="white"/>
</g>
</svg>
