<svg width="31" height="30" viewBox="0 0 31 30" fill="none" xmlns="http://www.w3.org/2000/svg">
<g id="dirham-coin-outline-icon 1" clip-path="url(#clip0_580_6468)">
<circle id="Ellipse 1599" cx="15.4464" cy="15.1593" r="13.1378" fill="url(#paint0_linear_580_6468)"/>
<path id="Vector" d="M15.4512 0.560547C19.4813 0.560547 23.1312 2.19471 25.7728 4.83637C28.4145 7.47801 30.0487 11.1276 30.0487 15.1582C30.0487 19.1889 28.4145 22.8385 25.7728 25.4799C23.1312 28.1215 19.4813 29.7557 15.4512 29.7557C11.4206 29.7557 7.771 28.1215 5.12936 25.4799C2.4877 22.8382 0.853516 19.1883 0.853516 15.1582C0.853516 11.1281 2.4877 7.47801 5.12936 4.83637C7.771 2.19499 11.4206 0.560547 15.4512 0.560547ZM11.9366 20.4762C11.8936 20.6367 11.8326 20.754 11.7586 20.8303C11.7052 20.8835 11.6213 20.9291 11.5071 20.965L9.9071 21.4531C10.0058 21.2676 10.09 21.1407 10.1635 21.069C10.2373 21.001 10.3647 20.9319 10.545 20.8637C10.4051 20.774 10.3063 20.693 10.2451 20.6161C10.1815 20.54 10.1513 20.4639 10.1513 20.3902C10.1513 20.3266 10.1716 20.2528 10.2094 20.1713C10.2505 20.0897 10.3008 20.0089 10.3647 19.93C10.6876 19.4997 11.0058 19.286 11.3208 19.286C11.4149 19.286 11.4892 19.3168 11.5475 19.3775C11.603 19.4411 11.6309 19.5203 11.6309 19.6196C11.6309 19.6985 11.6213 19.7668 11.5986 19.8231C11.5751 19.8815 11.5295 19.9651 11.4607 20.0798C11.2166 19.9579 11.0487 19.8966 10.9599 19.8966C10.8713 19.8966 10.7842 19.9195 10.6954 19.963C10.637 19.9935 10.5807 20.0339 10.5322 20.0824C10.5322 20.1486 10.6521 20.2476 10.8885 20.3829C11.1251 20.5173 11.2981 20.5838 11.3998 20.5838C11.466 20.5838 11.6442 20.5481 11.9366 20.4762ZM11.952 15.7453C11.952 16.1881 11.8983 16.5928 11.7943 16.9587C11.6872 17.3253 11.4837 17.816 11.1814 18.4316L10.7311 18.2486C10.8533 17.6125 10.9143 17.096 10.9143 16.6968C10.9143 16.3945 10.8885 15.9489 10.84 15.3641C10.7897 14.7765 10.7285 14.1964 10.6521 13.6215C10.5781 13.0492 10.4562 12.3626 10.2857 11.5685C10.2274 11.2894 10.1969 11.0984 10.1969 10.9944C10.1969 10.8412 10.273 10.5793 10.4283 10.2082C10.5807 9.83689 10.797 9.3892 11.0743 8.86252L11.5269 11.5031C11.695 12.5075 11.8094 13.3776 11.8756 14.1127C11.9264 14.6798 11.952 15.2241 11.952 15.7453ZM13.2224 20.0952V18.0044H15.3131V20.0952H13.2224ZM20.9956 17.913H17.6152C17.2876 17.913 17.0351 17.8434 16.86 17.704C16.6463 17.5335 16.539 17.2565 16.539 16.875C16.539 16.6538 16.5517 16.4172 16.5746 16.1651C16.5976 15.9108 16.6304 15.6539 16.6763 15.3946L16.982 15.3792C17.0224 15.5549 17.1094 15.6817 17.2465 15.7631C17.3812 15.8423 17.5461 15.8829 17.7398 15.8829H20.2933C20.1792 15.1507 19.9803 14.5677 19.6984 14.1302C19.4646 13.7669 19.1389 13.4537 18.7217 13.1892L19.2635 10.8618C19.904 11.3452 20.3598 11.9657 20.6269 12.7264C20.8734 13.4284 20.9956 14.36 20.9956 15.5165V17.913ZM24.4084 6.20082C22.1165 3.9089 18.9492 2.491 15.4512 2.491C11.953 2.491 8.78575 3.90916 6.49383 6.20082C4.20189 8.49274 2.78402 11.6603 2.78402 15.1582C2.78402 18.6562 4.20189 21.8234 6.49383 24.1154C8.78575 26.4073 11.953 27.8252 15.4512 27.8252C18.9492 27.8252 22.1165 26.4073 24.4084 24.1154C26.7003 21.8237 28.1182 18.6564 28.1182 15.1582C28.1182 11.66 26.7003 8.49274 24.4084 6.20082Z" fill="#070707"/>
</g>
<defs>
<linearGradient id="paint0_linear_580_6468" x1="26.9342" y1="17.5174" x2="6.37712" y2="18.3318" gradientUnits="userSpaceOnUse">
<stop offset="0.0152829" stop-color="#EDA702"/>
<stop offset="0.0881597" stop-color="#ECA703"/>
<stop offset="0.123059" stop-color="#EEA803"/>
<stop offset="0.264041" stop-color="#F3B202"/>
<stop offset="0.747003" stop-color="#F4B202"/>
<stop offset="0.919908" stop-color="#F3B202"/>
</linearGradient>
<clipPath id="clip0_580_6468">
<rect width="29.1951" height="29.1951" fill="white" transform="translate(0.853516 0.560547)"/>
</clipPath>
</defs>
</svg>
