<svg width="24" height="25" viewBox="0 0 24 25" fill="none" xmlns="http://www.w3.org/2000/svg">
<g id="mingcute:facebook-line" clip-path="url(#clip0_639_5671)">
<g id="Group">
<path id="Vector" fill-rule="evenodd" clip-rule="evenodd" d="M4 12.313C4.00014 10.7734 4.44451 9.26663 5.27979 7.97337C6.11506 6.68011 7.30576 5.65533 8.70901 5.022C10.1123 4.38867 11.6684 4.17369 13.1908 4.40286C14.7132 4.63203 16.1372 5.29561 17.2918 6.31398C18.4464 7.33235 19.2826 8.66225 19.7002 10.1441C20.1177 11.6259 20.0988 13.1968 19.6457 14.6682C19.1926 16.1395 18.3246 17.4489 17.1458 18.4392C15.967 19.4294 14.5275 20.0585 13 20.251V14.313H15C15.2652 14.313 15.5196 14.2076 15.7071 14.0201C15.8946 13.8326 16 13.5782 16 13.313C16 13.0478 15.8946 12.7934 15.7071 12.6059C15.5196 12.4183 15.2652 12.313 15 12.313H13V10.313C13 10.0478 13.1054 9.79342 13.2929 9.60588C13.4804 9.41835 13.7348 9.31299 14 9.31299H14.5C14.7652 9.31299 15.0196 9.20763 15.2071 9.02009C15.3946 8.83256 15.5 8.5782 15.5 8.31299C15.5 8.04777 15.3946 7.79342 15.2071 7.60588C15.0196 7.41835 14.7652 7.31299 14.5 7.31299H14C13.2044 7.31299 12.4413 7.62906 11.8787 8.19167C11.3161 8.75428 11 9.51734 11 10.313V12.313H9C8.73478 12.313 8.48043 12.4183 8.29289 12.6059C8.10536 12.7934 8 13.0478 8 13.313C8 13.5782 8.10536 13.8326 8.29289 14.0201C8.48043 14.2076 8.73478 14.313 9 14.313H11V20.251C9.0667 20.0072 7.28882 19.0663 6 17.6047C4.71119 16.1432 4.00003 14.2616 4 12.313ZM12 22.313C17.523 22.313 22 17.836 22 12.313C22 6.78999 17.523 2.31299 12 2.31299C6.477 2.31299 2 6.78999 2 12.313C2 17.836 6.477 22.313 12 22.313Z" fill="#525252"/>
</g>
</g>
<defs>
<clipPath id="clip0_639_5671">
<rect width="24" height="24" fill="white" transform="translate(0 0.312988)"/>
</clipPath>
</defs>
</svg>
