<svg width="35" height="24" viewBox="0 0 35 24" fill="none" xmlns="http://www.w3.org/2000/svg">
<g id="fontisto:american-express" clip-path="url(#clip0_266_21876)">
<path id="Vector" d="M32.6667 23.5H2.33333C1.71449 23.5 1.121 23.2577 0.683417 22.8264C0.245833 22.395 0 21.81 0 21.2L0 11.5247H1.68097L2.06014 10.62H2.90889L3.28708 11.5209H6.59458V10.8357L6.89014 11.5257H8.60708L8.90264 10.8242V11.5237H17.1208V10.0441H17.2764C17.3872 10.0479 17.4193 10.0575 17.4193 10.2396V11.5257H21.6708V11.1816C22.1054 11.3992 22.6178 11.5266 23.1612 11.5266L23.2536 11.5257H23.2488H25.0376L25.4207 10.6248H26.2694L26.6438 11.5257H30.0912V10.6689L30.6124 11.5257H33.3696V5.86766H30.6406V6.53562L30.2585 5.86766H27.4526V6.53562L27.1017 5.86766H23.3129C22.7389 5.83907 22.167 5.95551 21.6514 6.20595L21.6718 6.19733V5.86766H19.0585V6.19733C18.7421 5.95157 18.3426 5.83401 17.9414 5.86862H17.9472H8.39708L7.75639 7.33008L7.09819 5.86862H4.09014V6.53658L3.75861 5.86862H1.19194L0.00291667 8.55195V2.80195C0.00291667 2.19196 0.248749 1.60694 0.686334 1.17561C1.12392 0.744274 1.71741 0.501953 2.33625 0.501953H32.6696C33.2884 0.501953 33.8819 0.744274 34.3195 1.17561C34.7571 1.60694 35.0029 2.19196 35.0029 2.80195V12.8453H33.1819C33.1528 12.8434 33.1178 12.8434 33.0837 12.8434C32.6618 12.8434 32.27 12.968 31.9433 13.1817L31.9511 13.1769V12.8453H29.2581C28.8373 12.8224 28.4211 12.9402 28.0768 13.1797L28.0826 13.1759V12.8443H23.274V13.1759C22.8804 12.9571 22.4358 12.8428 21.9839 12.8443H21.946H21.9479H18.7756V13.1759C18.3611 12.9142 17.8693 12.7977 17.3794 12.8453L17.3882 12.8443H13.8386L13.0258 13.7107L12.2656 12.8443H6.96306V18.5062H12.1664L13.0035 17.6264L13.7919 18.5062H16.9993V17.1808H17.4465C17.8766 17.1974 18.3054 17.1266 18.7065 16.9728L18.6851 16.9805V18.5081H21.3296V17.0332H21.4569C21.6183 17.0332 21.6349 17.039 21.6349 17.2V18.509H29.6712L29.7694 18.511C30.2303 18.511 30.66 18.3749 31.0178 18.142L31.009 18.1468V18.509H33.5582L33.6797 18.511C34.1571 18.511 34.6111 18.4142 35.0233 18.2388L35.001 18.2474V21.201C35.001 21.811 34.7551 22.396 34.3176 22.8273C33.88 23.2587 33.2865 23.501 32.6676 23.501L32.6667 23.5ZM20.5187 17.7127H19.529V13.6541H21.8001C22.2103 13.6166 22.6233 13.6847 22.9989 13.8515L22.9833 13.8458C23.2876 14.0106 23.4908 14.325 23.4908 14.6853L23.4889 14.7495V14.7466L23.4899 14.783C23.4899 15.2488 23.205 15.6494 22.7967 15.8238L22.7889 15.8267C22.9843 15.8957 23.1476 16.0135 23.2692 16.1659L23.2711 16.1678C23.4084 16.3918 23.4659 16.6545 23.4344 16.9144L23.4354 16.9086V17.7117H22.4476V17.2038C22.4944 16.9272 22.4381 16.6434 22.2892 16.4045L22.2921 16.4093C22.1895 16.3325 22.0721 16.2771 21.9471 16.2463C21.8221 16.2155 21.6921 16.21 21.5649 16.2301L21.5707 16.2292H20.5187V17.7117V17.7127ZM20.5187 14.4927V15.404H21.7146C21.8834 15.4194 22.0534 15.3896 22.2065 15.3178L22.2007 15.3207C22.2633 15.2808 22.3147 15.2262 22.3504 15.1618C22.386 15.0973 22.4048 15.0251 22.4049 14.9517L22.4039 14.9297C22.4087 14.8564 22.3924 14.7843 22.3567 14.7198C22.3211 14.6554 22.2677 14.6022 22.2026 14.5665L22.2007 14.5655C22.0531 14.5005 21.8911 14.474 21.7301 14.4888H21.734L20.5187 14.4927ZM11.7444 17.7117H7.84875V13.6541H11.8057L13.0161 14.9843L14.2674 13.6541H17.4106C18.5267 13.6541 19.0692 14.0921 19.0692 14.991C19.0692 15.9062 18.5082 16.3509 17.3581 16.3509H16.1282V17.7107H14.2158L13.0044 16.37L11.7444 17.7117ZM15.1482 14.0892L13.6374 15.6896L15.1482 17.3418V14.0892ZM8.82972 16.0586V16.8655H11.2486L12.3667 15.6752L11.2914 14.4927H8.82875V15.2306H10.989V16.0576L8.82972 16.0586ZM16.1282 14.4936V15.5267H17.3989C17.7878 15.5267 18.0114 15.3312 18.0114 14.99C18.0114 14.6642 17.8033 14.4927 17.4096 14.4927L16.1282 14.4936ZM33.6651 17.7136H31.7654V16.8415H33.6574C33.7989 16.8608 33.9425 16.8243 34.0569 16.74L34.056 16.7409C34.0925 16.7075 34.1216 16.667 34.1415 16.622C34.1614 16.577 34.1717 16.5284 34.1717 16.4793V16.464C34.1717 16.4154 34.1611 16.3675 34.1404 16.3235C34.1198 16.2795 34.0896 16.2404 34.0521 16.209C33.9515 16.1374 33.8274 16.1052 33.704 16.119H33.706L33.5242 16.1132C32.6356 16.0902 31.6293 16.0634 31.6293 14.8626C31.6293 14.278 32.0007 13.6541 33.04 13.6541H35.001V14.5185H33.2072C33.0687 14.5033 32.9287 14.5307 32.8067 14.5971L32.8106 14.5952C32.7626 14.6263 32.724 14.6697 32.6988 14.7206C32.6737 14.7715 32.6629 14.8282 32.6676 14.8846V14.8837V14.8942C32.6676 14.9588 32.6883 15.0217 32.7267 15.074C32.7651 15.1263 32.8193 15.1654 32.8815 15.1855L32.8835 15.1865C33.0067 15.224 33.1358 15.2395 33.2646 15.2325H33.2617L33.7954 15.2459C34.1978 15.2063 34.5997 15.3244 34.9144 15.5746L34.9115 15.5727C34.9407 15.5957 34.966 15.6206 34.9883 15.6484L34.9893 15.6494L35.001 17.1942C34.8375 17.3825 34.6295 17.5283 34.3953 17.6187C34.1612 17.7091 33.9081 17.7414 33.6583 17.7127L33.6651 17.7136ZM29.8258 17.7136H27.9086V16.8415H29.8161C29.9588 16.86 30.1033 16.8236 30.2196 16.74L30.2176 16.7409C30.2539 16.7074 30.2829 16.6669 30.3026 16.6219C30.3223 16.5768 30.3325 16.5283 30.3324 16.4793V16.4697C30.3323 16.4204 30.3216 16.3716 30.301 16.3267C30.2804 16.2818 30.2503 16.2416 30.2128 16.209C30.1104 16.1373 29.9847 16.1052 29.8599 16.119H29.8618L29.681 16.1132C28.7953 16.0902 27.79 16.0634 27.79 14.8626C27.79 14.278 28.1594 13.6541 29.1968 13.6541H31.1685V14.5185H29.364C29.2264 14.5034 29.0874 14.5309 28.9664 14.5971L28.9703 14.5952C28.9192 14.6298 28.8786 14.6774 28.8527 14.733C28.8268 14.7885 28.8166 14.8499 28.8232 14.9106C28.8297 14.9714 28.8528 15.0293 28.89 15.0782C28.9272 15.1271 28.9771 15.1652 29.0344 15.1884L29.0364 15.1894C29.1613 15.2271 29.292 15.2427 29.4224 15.2354H29.4194L29.9493 15.2488C30.3538 15.2104 30.7575 15.3286 31.0751 15.5785L31.0722 15.5756C31.1791 15.6917 31.2603 15.8284 31.3108 15.977C31.3614 16.1256 31.3801 16.2829 31.3658 16.439V16.4342C31.3688 17.2805 30.8486 17.7117 29.8229 17.7117L29.8258 17.7136ZM27.3194 17.7136H24.0333V13.6532H27.3165V14.4917H25.0153V15.2296H27.2631V16.0567H25.0153V16.8636L27.3194 16.8674V17.7107V17.7136ZM29.2347 10.7312H27.231L26.8479 9.82654H24.8043L24.4329 10.7312H23.2818C22.7649 10.7581 22.2558 10.5975 21.8507 10.2798L21.8556 10.2827C21.6631 10.0733 21.517 9.8267 21.4266 9.55858C21.3362 9.29045 21.3035 9.0067 21.3306 8.72541L21.3296 8.73308C21.3045 8.44661 21.3389 8.15812 21.4305 7.88514C21.522 7.61216 21.669 7.36038 21.8624 7.14512L21.8604 7.14704C22.0646 6.97107 22.3033 6.8384 22.5617 6.75729C22.8201 6.67617 23.0927 6.64834 23.3625 6.67554L23.3547 6.67458H24.3075V7.53995H23.3742C23.2376 7.52261 23.0988 7.53518 22.9678 7.57676C22.8367 7.61833 22.7165 7.6879 22.6158 7.7805L22.6168 7.77954C22.4089 8.04193 22.308 8.37143 22.3339 8.70337V8.69858C22.3029 9.03962 22.4001 9.37999 22.6071 9.655L22.6042 9.65116C22.7974 9.80686 23.0448 9.88184 23.2935 9.86008H23.2896H23.731L25.1222 6.66883H26.6L28.2654 10.5022V6.66883H29.7636L31.4922 9.494V6.66883H32.5033V10.7245H31.0994L29.2328 7.67891V10.7245L29.2347 10.7312ZM25.8329 7.35979L25.1553 8.97745H26.5135L25.8329 7.35979ZM16.3061 10.7293H15.3222V6.6717H17.5856C17.9987 6.62944 18.4158 6.69868 18.7921 6.872L18.7775 6.86625C18.9288 6.94873 19.055 7.06964 19.1428 7.21643C19.2307 7.36321 19.2771 7.53051 19.2772 7.70095L19.2753 7.76804V7.76516V7.79487C19.2754 8.0162 19.2106 8.23285 19.0889 8.41882C18.9671 8.60479 18.7935 8.75217 18.5889 8.84329L18.5811 8.84616C18.7765 8.91899 18.9408 9.03591 19.0662 9.18541L19.0682 9.18733C19.2069 9.41213 19.2641 9.67667 19.2306 9.9377L19.2315 9.93195V10.7283H18.2389L18.235 10.2166V10.1399C18.2703 9.88969 18.2141 9.63524 18.0765 9.42212L18.0794 9.42691C17.9765 9.35234 17.8595 9.29862 17.7354 9.26885C17.6112 9.23908 17.4823 9.23385 17.3561 9.25345L17.3619 9.2525H16.3071V10.7283L16.3061 10.7293ZM16.3061 7.516V8.41683H17.5C17.6687 8.43486 17.839 8.40493 17.991 8.33058L17.9861 8.3325C18.0484 8.29518 18.0999 8.2427 18.1356 8.18009C18.1714 8.11749 18.1902 8.04688 18.1903 7.97504L18.1893 7.9482C18.1943 7.87539 18.1775 7.80369 18.141 7.74017C18.1046 7.67665 18.05 7.62504 17.9842 7.5917L17.9822 7.59075C17.8343 7.52818 17.6732 7.50187 17.5126 7.51408H17.5156L16.3061 7.516ZM5.88778 10.7293H3.88889L3.51069 9.82462H1.46125L1.08014 10.7293H0.0106944L1.77333 6.6717H3.23458L4.90778 10.5117V6.6717H6.51292L7.80014 9.42308L8.98333 6.6717H10.6215V10.7274H9.61042L9.60847 7.55337L8.18222 10.7283H7.31889L5.88875 7.54858V10.7283L5.88778 10.7293ZM2.48111 7.35979L1.81125 8.97745H3.15486L2.48111 7.35979ZM20.8444 10.7283H19.8411V6.6717H20.8454V10.7274L20.8444 10.7283ZM14.6358 10.7283H11.3556V6.6717H14.6417V7.51504H12.3394V8.24625H14.5863V9.07904H12.3375V9.88979H14.6397V10.7274L14.6358 10.7283Z" fill="white"/>
</g>
<defs>
<clipPath id="clip0_266_21876">
<rect width="35" height="23" fill="white" transform="translate(0 0.5)"/>
</clipPath>
</defs>
</svg>
