<svg width="35" height="24" viewBox="0 0 35 24" fill="none" xmlns="http://www.w3.org/2000/svg">
<g id="fontisto:visa" clip-path="url(#clip0_266_21879)">
<path id="Vector" d="M32.6667 23.5H2.33333C1.71449 23.5 1.121 23.2577 0.683417 22.8263C0.245833 22.395 0 21.81 0 21.2L0 2.8C0 2.19 0.245833 1.60499 0.683417 1.17365C1.121 0.742321 1.71449 0.5 2.33333 0.5L32.6667 0.5C33.2855 0.5 33.879 0.742321 34.3166 1.17365C34.7542 1.60499 35 2.19 35 2.8V21.2C35 21.81 34.7542 22.395 34.3166 22.8263C33.879 23.2577 33.2855 23.5 32.6667 23.5ZM17.3444 14.6469L16.9954 16.8032C17.8874 17.1732 18.8506 17.3469 19.8178 17.312H19.8071C20.9404 17.3772 22.0628 17.062 22.9911 16.4179L22.9746 16.4285C23.3536 16.1539 23.6618 15.7952 23.8743 15.3815C24.0867 14.9678 24.1975 14.5107 24.1976 14.047V14.0326C24.1976 12.9785 23.4821 12.1035 22.0714 11.4269C21.6865 11.2438 21.3182 11.0283 20.9708 10.7829L20.9932 10.7983C20.8962 10.7363 20.8154 10.6526 20.7574 10.554C20.6995 10.4554 20.666 10.3447 20.6597 10.2309V10.229C20.667 10.1103 20.7046 9.99536 20.769 9.89483C20.8334 9.7943 20.9226 9.71146 21.0282 9.654L21.0321 9.65208C21.3584 9.46651 21.7334 9.38078 22.1093 9.40579H22.1035H22.1812L22.2561 9.40483C22.8822 9.40483 23.4762 9.53804 24.0119 9.77667L23.9847 9.76612L24.2122 9.88592L24.5613 7.80538C23.8554 7.53558 23.1046 7.39841 22.3475 7.40096H22.2999H22.3028C21.2073 7.35368 20.1272 7.668 19.2335 8.29413L19.249 8.28358C18.8776 8.54203 18.5745 8.8846 18.3652 9.28249C18.1559 9.68038 18.0466 10.122 18.0464 10.5702V10.575C18.0367 11.5889 18.7775 12.4648 20.2494 13.1816C20.6383 13.3493 20.9737 13.5544 21.2742 13.8007L21.2674 13.795C21.3541 13.8668 21.4246 13.9558 21.4743 14.0562C21.524 14.1565 21.5519 14.266 21.5561 14.3776V14.3815C21.5561 14.6872 21.3714 14.9497 21.105 15.0676L21.1001 15.0695C20.8085 15.221 20.4624 15.3091 20.0949 15.3091H20.0501H20.0521H19.9792C19.146 15.3091 18.3565 15.127 17.6488 14.8012L17.6828 14.8156L17.3493 14.6507L17.3444 14.6469ZM27.1882 15.7404H30.4111C30.463 15.9595 30.5644 16.4387 30.7154 17.1779H33.0556L31.0197 7.56483H29.0753C28.7973 7.54055 28.5188 7.6053 28.2811 7.74946C28.0434 7.89362 27.8593 8.1095 27.756 8.36504L27.7531 8.37367L24.0197 17.1779H26.6642L27.195 15.7413L27.1882 15.7404ZM14.4774 7.56483L12.8965 17.1779H15.4185L16.9983 7.56483H14.4774ZM4.78528 9.52654L6.83667 17.1625H9.49472L13.4565 7.56483H10.7868L8.32319 14.1237L8.06458 12.7906L7.18569 8.37367C7.13858 8.11891 6.99291 7.89215 6.77941 7.74124C6.56591 7.59034 6.3013 7.52708 6.04139 7.56483L6.04722 7.56387H1.97653L1.94639 7.75842C5.08083 8.54329 7.14 10.2367 8.0675 12.7897C7.78248 12.0602 7.343 11.3989 6.77833 10.85L6.77736 10.849C6.22262 10.2876 5.55907 9.84176 4.82611 9.53804L4.78722 9.52367L4.78528 9.52654ZM30.0018 13.7633H27.9018C28.0437 13.3941 28.3782 12.4996 28.9051 11.08L28.9499 10.9449L29.1054 10.5558C29.1696 10.3967 29.2124 10.2664 29.2415 10.1667L29.4243 10.9899L30.0008 13.7595L30.0018 13.7633Z" fill="white"/>
</g>
<defs>
<clipPath id="clip0_266_21879">
<rect width="35" height="23" fill="white" transform="translate(0 0.5)"/>
</clipPath>
</defs>
</svg>
