<svg width="58" height="62" viewBox="0 0 58 62" fill="none" xmlns="http://www.w3.org/2000/svg">
<g id="Group 1">
<path id="Vector 1" d="M7.88747 19.8994C-4.6009 45.8673 13.091 55.0574 23.4979 56.4065L23.5806 58.6365C22.672 58.6641 20.888 58.9504 21.0201 59.8755C21.1853 61.0318 22.3417 60.7014 22.672 60.5362C23.0024 60.371 24.3589 59.5451 25.1499 60.6188C25.7827 61.4778 26.4598 61.3622 26.7192 61.197C28.1068 60.4041 26.5265 59.2698 25.5629 58.8017V56.4065H28.7015C28.7015 56.6543 28.7345 57.2985 28.8667 57.8932C28.9988 58.4879 28.8116 58.7467 28.7015 58.8017C28.261 58.8017 27.413 58.9834 27.5451 59.7103C27.7103 60.6188 28.7841 60.6188 29.1145 60.1233C29.4448 59.6277 30.2708 59.4625 31.8401 59.5451C33.4094 59.6277 32.9964 58.3062 31.4271 58.3062C30.1717 58.3062 29.9129 57.7555 29.9404 57.4802L29.7752 56.4065C54.7189 52.6897 49.8458 34.3536 50.1762 32.0409C50.5066 29.7283 48.3591 26.4245 48.8547 18.3301C49.2511 11.8547 45.6059 6.43645 43.7338 4.53676C36.9885 -1.1623 20.3758 -6.06845 7.88747 19.8994Z" fill="#FDE504"/>
<path id="Vector 1 (Stroke)" fill-rule="evenodd" clip-rule="evenodd" d="M23.7666 54.63V54.6102H29.6409C35.5875 53.7076 39.6222 51.9615 42.3661 49.9163C45.1152 47.8672 46.6555 45.454 47.5176 43.0833C48.388 40.6897 48.5801 38.3 48.5607 36.3187C48.551 35.3292 48.4891 34.4583 48.4362 33.7293L48.4329 33.6834C48.4083 33.3446 48.3844 33.0145 48.3721 32.7332C48.3605 32.4669 48.3515 32.1123 48.398 31.7869C48.4365 31.5172 48.4145 31.1204 48.2757 30.402C48.2083 30.0531 48.1224 29.6696 48.0201 29.215L48.0134 29.185C47.9146 28.7459 47.8035 28.2524 47.6934 27.7125C47.236 25.4692 46.8023 22.4587 47.0618 18.2204C47.4128 12.4864 44.1798 7.58438 42.5102 5.85483C39.4295 3.28095 34.1617 0.939304 28.3154 2.10462C22.4986 3.26407 15.6024 8.00196 9.50628 20.678C3.4506 33.2699 4.90294 41.3108 8.55864 46.3271C12.3285 51.5 18.8095 53.9874 23.7289 54.6251L23.7666 54.63ZM43.7338 4.53676C45.6059 6.43645 49.2511 11.8547 48.8547 18.3301C48.5461 23.3703 49.2623 26.553 49.7669 28.7956C50.0727 30.1546 50.3009 31.1683 50.1762 32.0409C50.1355 32.3259 50.1738 32.8542 50.2256 33.5685C50.5899 38.594 51.6218 52.8258 30.4978 56.2934C30.4136 56.3072 30.329 56.3209 30.2441 56.3343C30.089 56.359 29.9327 56.383 29.7752 56.4065L29.9404 57.4802C29.9396 57.488 29.9391 57.496 29.9388 57.5041C29.9371 57.5482 29.9425 57.598 29.9575 57.6508C29.9594 57.6574 29.9614 57.6641 29.9636 57.6709C29.9767 57.7112 29.9955 57.753 30.0209 57.795C30.0921 57.9127 30.2157 58.0321 30.4153 58.1258C30.4975 58.1644 30.5926 58.1987 30.7022 58.2267C30.8573 58.2664 31.0415 58.2935 31.2595 58.3027C31.3133 58.305 31.3692 58.3062 31.4271 58.3062C31.6002 58.3062 31.7591 58.3222 31.903 58.3507C33.0634 58.5805 33.2364 59.6186 31.8401 59.5451C31.6962 59.5375 31.5587 59.532 31.4271 59.5287C31.316 59.5259 31.2092 59.5246 31.1066 59.5248C30.8423 59.5256 30.6059 59.5367 30.3954 59.5589C30.0799 59.5922 29.8227 59.6503 29.6171 59.7356C29.4798 59.7926 29.3655 59.8617 29.2724 59.9435C29.2677 59.9477 29.2631 59.9518 29.2585 59.956C29.2028 60.0069 29.1549 60.0626 29.1145 60.1233M29.0484 60.2059C29.0728 60.1801 29.0949 60.1525 29.1145 60.1233L29.0484 60.2059ZM29.0484 60.2059C28.958 60.3013 28.8365 60.3718 28.7015 60.413C28.2568 60.5484 27.6644 60.366 27.5451 59.7103C27.5025 59.4758 27.5619 59.298 27.6767 59.1648C27.8626 58.9491 28.1937 58.8502 28.4723 58.8162C28.4946 58.8135 28.5164 58.8112 28.5379 58.8093C28.5963 58.8041 28.6515 58.8017 28.7015 58.8017C28.7246 58.7902 28.7512 58.7696 28.7774 58.7388C28.8615 58.6403 28.9428 58.437 28.9006 58.0887C28.8933 58.028 28.8822 57.9629 28.8667 57.8932C28.849 57.8136 28.8331 57.7331 28.8188 57.6528C28.8014 57.5555 28.7865 57.4584 28.7736 57.3635C28.7318 57.0544 28.7121 56.7684 28.7049 56.5711C28.7025 56.5057 28.7015 56.45 28.7015 56.4065H25.5629V58.8017C25.6439 58.8411 25.7294 58.8852 25.817 58.9334C26.0004 59.0342 26.1935 59.1531 26.3769 59.2845C26.6019 59.4457 26.8122 59.6258 26.9717 59.8145C27.3585 60.2725 27.4462 60.7816 26.7192 61.197C26.638 61.2487 26.5159 61.2955 26.367 61.3092C26.042 61.3389 25.5894 61.2103 25.1568 60.6281C25.1545 60.6251 25.1522 60.6219 25.1499 60.6188C25.0853 60.5311 25.0169 60.4561 24.9456 60.3923C24.909 60.3596 24.8717 60.3299 24.8337 60.3029C24.5973 60.1352 24.3359 60.0751 24.0776 60.0773C23.924 60.0786 23.7715 60.1019 23.6261 60.1376C23.26 60.2277 22.9386 60.3967 22.7564 60.4925C22.7236 60.5097 22.6953 60.5246 22.672 60.5362C22.6158 60.5643 22.5357 60.5972 22.4407 60.6267C21.977 60.7708 21.1572 60.8351 21.0201 59.8755C20.9557 59.4242 21.3472 59.1249 21.8707 58.9335C21.8895 58.9267 21.9085 58.9199 21.9276 58.9133C22.4385 58.7371 23.0601 58.6587 23.5063 58.6393C23.5316 58.6382 23.5564 58.6373 23.5806 58.6365L23.4979 56.4065C13.091 55.0574 -4.6009 45.8673 7.88747 19.8994C20.3758 -6.06845 36.9885 -1.1623 43.7338 4.53676M25.6032 60.9782C25.61 60.987 25.6086 60.9864 25.602 60.9768C25.6024 60.9773 25.6028 60.9777 25.6032 60.9782Z" fill="black"/>
<path id="Vector 2" d="M11.1133 16.0233C2.21384 16.0233 1.39824 31.3972 2.15888 40.117C2.1921 40.4978 2.689 40.6053 2.88669 40.2781C4.15224 38.1834 6.86042 33.7695 11.1133 27.0085C16.2672 18.815 13.2607 16.2711 11.1133 16.0233Z" fill="#F79800"/>
<path id="Vector 2 (Stroke)" fill-rule="evenodd" clip-rule="evenodd" d="M3.01934 38.1452C4.50363 35.716 6.90423 31.8316 10.2715 26.4785C12.8079 22.4462 13.1688 20.05 12.8804 18.7522C12.6232 17.5949 11.7946 17.1217 11.0537 17.0189C9.19178 17.0357 7.75844 17.832 6.61776 19.1993C5.43743 20.6142 4.57312 22.6452 3.98045 25.0394C2.9612 29.1568 2.8039 34.1018 3.01934 38.1452ZM5.08916 17.9241C6.56832 16.151 8.5556 15.028 11.114 15.028H11.1712L11.2281 15.0345C12.6214 15.1953 14.3354 16.1234 14.8237 18.3203C15.2869 20.4047 14.574 23.3773 11.9565 27.5384C7.70584 34.2959 5.00097 38.7046 3.73935 40.7928C3.07101 41.899 1.28953 41.5963 1.16802 40.2034C0.783005 35.7897 0.789832 29.644 2.04809 24.561C2.67668 22.0217 3.63737 19.6643 5.08916 17.9241Z" fill="black"/>
<path id="Vector 3" d="M46.9385 18.6782C55.5863 20.7796 52.7485 35.9113 49.9503 44.2049C49.8281 44.5671 49.3199 44.5542 49.2051 44.1896C48.4699 41.8553 46.8806 36.9267 44.3445 29.3526C41.2712 20.1739 44.7933 18.4118 46.9385 18.6782Z" fill="#F79800"/>
<path id="Vector 3 (Stroke)" fill-rule="evenodd" clip-rule="evenodd" d="M49.5807 42.0855C48.712 39.3745 47.2965 35.0331 45.2885 29.0362C43.776 24.519 43.9911 22.1054 44.5779 20.9124C45.101 19.8486 46.018 19.5844 46.7622 19.6595C48.5675 20.1155 49.7722 21.2277 50.5578 22.8257C51.3706 24.4793 51.7309 26.6569 51.7415 29.1234C51.7596 33.365 50.7448 38.2074 49.5807 42.0855ZM52.3443 21.9475C51.3256 19.8753 49.6598 18.3147 47.1737 17.7106L47.1181 17.6971L47.0613 17.69C45.6694 17.5172 43.7847 18.0143 42.7915 20.0339C41.8492 21.9499 41.84 25.0068 43.4009 29.6683C45.9356 37.2385 47.523 42.1611 48.2558 44.4882C48.6441 45.7209 50.4466 45.8475 50.8936 44.5227C52.31 40.3247 53.7546 34.3512 53.7321 29.1148C53.7209 26.4989 53.3441 23.9813 52.3443 21.9475Z" fill="black"/>
<path id="Vector 5" d="M22.0973 23.6728L23.2983 16.657C23.3601 16.2962 23.6906 16.0394 24.0558 16.0646C32.0582 16.6164 26.5858 17.9415 26.0109 20.5821C25.9842 20.7051 25.9388 20.8247 25.8631 20.9253L23.3797 24.226C22.9266 24.8282 21.9702 24.4156 22.0973 23.6728Z" fill="white"/>
<path id="Ellipse 1" d="M41.586 45.3447C41.586 51.8678 35.0407 54.9257 26.9666 54.9257C18.8926 54.9257 12.3473 51.8678 12.3473 45.3447C12.3473 38.8216 18.8926 33.5336 26.9666 33.5336C35.0407 33.5336 41.586 38.8216 41.586 45.3447Z" fill="#F79800"/>
<path id="Ellipse 2" d="M24.9009 11.4808C24.9009 12.9861 23.7546 14.2064 22.3405 14.2064C20.9264 14.2064 19.78 12.9861 19.78 11.4808C19.78 9.97544 20.9264 8.75513 22.3405 8.75513C23.7546 8.75513 24.9009 9.97544 24.9009 11.4808Z" fill="black"/>
<path id="Ellipse 3" d="M37.4555 20.8139C37.4555 22.1824 36.4201 23.2918 35.1429 23.2918C33.8656 23.2918 32.8302 22.1824 32.8302 20.8139C32.8302 19.4454 33.8656 18.3361 35.1429 18.3361C36.4201 18.3361 37.4555 19.4454 37.4555 20.8139Z" fill="black"/>
<path id="Vector 4 (Stroke)" fill-rule="evenodd" clip-rule="evenodd" d="M20.2933 24.5916L21.4795 17.2246L23.0518 17.4778L21.8656 24.8448C21.745 25.5937 22.4729 26.1968 23.1863 25.9392L29.9375 23.5013C30.2927 23.373 30.5501 23.0559 30.5605 22.6783C30.6325 20.0855 29.393 16.1227 23.8829 16.6733C23.4553 16.716 23.1201 17.0536 23.0518 17.4778L21.4795 17.2246C21.6542 16.1396 22.5268 15.2083 23.7245 15.0887C26.9179 14.7696 29.177 15.7628 30.562 17.5065C31.8663 19.1486 32.1945 21.2072 32.1525 22.7225C32.1216 23.8338 31.3714 24.6767 30.4784 24.9992L23.7273 27.4371C21.8723 28.1069 19.9798 26.5387 20.2933 24.5916Z" fill="black"/>
</g>
</svg>
