<svg width="23" height="23" viewBox="0 0 23 23" fill="none" xmlns="http://www.w3.org/2000/svg">
<g id="fi_493808" clip-path="url(#clip0_639_5925)">
<g id="Group">
<g id="Group_2">
<path id="Vector" d="M17.8745 13.963C17.4427 13.0628 15.8982 11.8134 14.4058 10.6061C13.5735 9.93326 12.787 9.29711 12.2856 8.79571C12.16 8.66921 11.9721 8.62886 11.8062 8.68846C11.4973 8.80031 11.3066 8.88646 11.1563 8.95336C10.9271 9.05601 10.8501 9.09086 10.5412 9.12201C10.4046 9.13576 10.2818 9.20911 10.2057 9.32276C9.5576 10.2917 8.8866 10.2092 8.43835 10.0589C8.29535 10.0112 8.26969 9.94976 8.25594 9.89111C8.15969 9.48871 8.64279 8.55186 9.26885 7.92576C10.7584 6.43526 11.5266 6.06217 13.1491 6.78726C14.9897 7.61042 16.8341 8.25486 16.8524 8.26126C17.0935 8.34467 17.3529 8.21817 17.4363 7.97892C17.5188 7.73967 17.3932 7.47842 17.154 7.39501C17.1357 7.38861 15.328 6.75701 13.524 5.94942C11.4221 5.00982 10.2689 5.62857 8.62165 7.27676C7.99465 7.90376 7.14305 9.17242 7.36305 10.1029C7.45746 10.4989 7.73615 10.7922 8.15046 10.9288C9.18905 11.2716 10.1369 10.9434 10.8427 10.0066C11.1342 9.96171 11.2928 9.89571 11.5311 9.78846C11.6173 9.74996 11.7181 9.70506 11.852 9.65096C12.3763 10.1432 13.084 10.7161 13.8292 11.3184C15.1767 12.4083 16.7048 13.644 17.0486 14.359C17.2182 14.7119 17.0357 14.942 16.912 15.0474C16.7305 15.2032 16.4821 15.2527 16.3473 15.1583C16.1988 15.0565 16.0054 15.0501 15.8523 15.1418C15.6983 15.2334 15.6122 15.4067 15.6314 15.5845C15.6626 15.876 15.3958 16.0429 15.2803 16.1006C14.987 16.2491 14.6808 16.2235 14.5662 16.1171C14.4379 15.998 14.2536 15.9631 14.0905 16.0236C13.9273 16.085 13.8136 16.2354 13.7971 16.4095C13.7696 16.7102 13.5469 16.9989 13.2563 17.1117C13.116 17.1648 12.9125 17.1969 12.7301 17.0301C12.6165 16.9274 12.4588 16.888 12.3112 16.9237C12.1618 16.9604 12.0417 17.0686 11.9895 17.2125C11.9721 17.2583 11.9326 17.3683 11.5036 17.3683C11.1984 17.3683 10.6493 17.1621 10.3807 16.9842C10.059 16.7725 8.04136 15.2673 6.2988 13.808C6.05405 13.6017 5.63055 13.1599 5.25655 12.7694C4.92471 12.4229 4.6213 12.1085 4.46546 11.9765C4.27021 11.8115 3.98146 11.8362 3.81921 12.0306C3.65605 12.224 3.67986 12.5137 3.8733 12.6768C4.0154 12.7969 4.2904 13.0875 4.5938 13.4037C5.00265 13.8309 5.42521 14.2727 5.7094 14.5111C7.41625 15.9402 9.46775 17.4829 9.87655 17.7515C10.2139 17.9733 10.9408 18.285 11.5037 18.285C11.9556 18.285 12.303 18.1814 12.5441 17.9788C12.8667 18.1044 13.2334 18.1053 13.5863 17.9678C14.0034 17.8065 14.3462 17.4811 14.5406 17.0869C14.9017 17.1639 15.3152 17.1098 15.691 16.921C16.0586 16.7359 16.3244 16.4526 16.4564 16.1217C16.8212 16.1409 17.197 16.0117 17.5078 15.7449C18.034 15.2949 18.1788 14.5946 17.8745 13.963Z" fill="#222222"/>
</g>
</g>
<g id="Group_3">
<g id="Group_4">
<path id="Vector_2" d="M9.66928 6.36816H5.54429C5.29129 6.36816 5.08594 6.57351 5.08594 6.82651C5.08594 7.07951 5.29129 7.28486 5.54429 7.28486H9.66928C9.92228 7.28486 10.1276 7.07951 10.1276 6.82651C10.1276 6.57351 9.92228 6.36816 9.66928 6.36816Z" fill="#222222"/>
</g>
</g>
<g id="Group_5">
<g id="Group_6">
<path id="Vector_3" d="M19.2102 12.9876C19.0681 12.7777 18.7839 12.7199 18.574 12.8629L17.2339 13.7631C17.024 13.9042 16.968 14.1893 17.1092 14.3992C17.1981 14.5303 17.343 14.6018 17.4906 14.6018C17.5776 14.6018 17.6666 14.5771 17.7454 14.5239L19.0856 13.6238C19.2954 13.4826 19.3513 13.1975 19.2102 12.9876Z" fill="#222222"/>
</g>
</g>
<g id="Group_7">
<g id="Group_8">
<path id="Vector_4" d="M16.3677 15.1748C16.0396 14.9163 14.572 13.4139 13.6645 12.4679C13.4894 12.2846 13.1988 12.2782 13.0164 12.4542C12.833 12.6293 12.8275 12.9198 13.0026 13.1023C13.2382 13.3479 15.3163 15.514 15.7994 15.8954C15.8828 15.9614 15.9836 15.9935 16.0826 15.9935C16.2174 15.9935 16.3521 15.933 16.4438 15.8184C16.6006 15.6203 16.5667 15.3316 16.3677 15.1748Z" fill="#222222"/>
</g>
</g>
<g id="Group_9">
<g id="Group_10">
<path id="Vector_5" d="M14.5367 16.0941C13.9876 15.655 12.608 14.1893 12.2963 13.8501C12.124 13.6631 11.8352 13.6521 11.6482 13.8226C11.4621 13.994 11.4493 14.2846 11.6207 14.4707C11.6372 14.4881 13.2836 16.2656 13.9637 16.8101C14.0481 16.877 14.1498 16.91 14.2497 16.91C14.3836 16.91 14.5174 16.8504 14.6081 16.7386C14.7659 16.5405 14.7338 16.2518 14.5367 16.0941Z" fill="#222222"/>
</g>
</g>
<g id="Group_11">
<g id="Group_12">
<path id="Vector_6" d="M12.7097 17.017C12.0561 16.4661 10.7187 15.0425 10.4575 14.7629C10.2842 14.5777 9.99363 14.5676 9.80938 14.7409C9.62423 14.9141 9.61503 15.2038 9.78738 15.389C10.1632 15.7914 11.4429 17.1481 12.1185 17.7182C12.2046 17.7906 12.3091 17.8264 12.4136 17.8264C12.5438 17.8264 12.674 17.7705 12.7647 17.6632C12.9279 17.4689 12.9031 17.1801 12.7097 17.017Z" fill="#222222"/>
</g>
</g>
<g id="Group_13">
<g id="Group_14">
<path id="Vector_7" d="M5.857 5.57737C5.0714 4.83302 1.93 4.59193 0.985848 4.53602C0.855695 4.52962 0.735598 4.57268 0.643945 4.65977C0.55225 4.74593 0.5 4.86693 0.5 4.99343V13.2434C0.5 13.4964 0.705348 13.7018 0.958348 13.7018H3.70835C3.90635 13.7018 4.08235 13.5744 4.14375 13.3855C4.21065 13.1802 5.7901 8.33287 5.99815 5.94952C6.0101 5.81018 5.95875 5.67268 5.857 5.57737ZM3.37375 12.7851H1.41665V5.48477C2.88975 5.60118 4.47925 5.85418 5.05675 6.13468C4.81385 8.14218 3.71475 11.7089 3.37375 12.7851Z" fill="#222222"/>
</g>
</g>
<g id="Group_15">
<g id="Group_16">
<path id="Vector_8" d="M22.0436 5.45117C18.4447 5.45117 16.4482 6.37242 16.3648 6.41092C16.2457 6.46682 16.1567 6.57042 16.1201 6.69602C16.0834 6.82162 16.1017 6.95637 16.1705 7.06817C16.737 7.98027 18.5107 13.0458 18.8517 14.2814C18.9067 14.4803 19.0873 14.6178 19.2936 14.6178H22.0436C22.2966 14.6178 22.5019 14.4125 22.5019 14.1595V5.90948C22.5019 5.65557 22.2966 5.45117 22.0436 5.45117ZM21.5853 13.7012H19.6364C19.2019 12.2858 17.9186 8.59532 17.2027 7.07002C17.9021 6.83262 19.4045 6.42467 21.5853 6.37337V13.7012Z" fill="#222222"/>
</g>
</g>
</g>
<defs>
<clipPath id="clip0_639_5925">
<rect width="22" height="22" fill="white" transform="translate(0.5 0.410156)"/>
</clipPath>
</defs>
</svg>
