<svg width="78" height="77" viewBox="0 0 78 77" fill="none" xmlns="http://www.w3.org/2000/svg">
<g id="arcticons:hm">
<path id="Vector" d="M23.531 17.6641C17.7437 30.978 12.4691 44.5089 7.71875 58.227M35.4307 18.4581C30.0521 31.7119 25.096 45.1333 20.5697 58.7019" stroke="white" stroke-width="3" stroke-linecap="round" stroke-linejoin="round"/>
<path id="Vector_2" d="M8.51367 41.5663C17.0202 39.1368 25.6758 37.264 34.4258 35.9597M39.2912 58.7004C42.6957 44.8914 47.351 31.4211 53.1993 18.4567C51.8899 30.5591 51.2019 42.7208 51.138 54.8937C56.5579 42.2662 62.9589 30.0827 70.2821 18.4551C67.0274 31.9303 64.538 45.579 62.8259 59.3357M36.3572 49.7379C34.1884 53.0955 31.673 53.9392 30.6191 52.5933C29.8523 51.6148 31.2158 49.5615 31.9409 48.6535C33.3702 46.8633 35.6177 45.9216 36.0139 44.1843C36.3572 42.6764 35.2728 42.4133 34.2413 42.4133C32.9981 42.4133 32.2265 43.9629 32.4174 44.6864C32.658 46.9002 34.9856 52.595 35.669 53.9152" stroke="white" stroke-width="3" stroke-linecap="round" stroke-linejoin="round"/>
</g>
</svg>
