<svg width="24" height="25" viewBox="0 0 24 25" fill="none" xmlns="http://www.w3.org/2000/svg">
<g id="ic:round-apple">
<path id="Vector" d="M17.05 21.0931C16.07 22.0431 15 21.8931 13.97 21.4431C12.88 20.9831 11.88 20.9631 10.73 21.4431C9.29004 22.0631 8.53004 21.8831 7.67004 21.0931C2.79004 16.0631 3.51004 8.40311 9.05004 8.12311C10.4 8.19311 11.34 8.86311 12.13 8.92311C13.31 8.68311 14.44 7.99311 15.7 8.08311C17.21 8.20311 18.35 8.80311 19.1 9.88311C15.98 11.7531 16.72 15.8631 19.58 17.0131C19.01 18.5131 18.27 20.0031 17.04 21.1031L17.05 21.0931ZM12.03 8.06311C11.88 5.83311 13.69 3.99311 15.77 3.81311C16.06 6.39311 13.43 8.31311 12.03 8.06311Z" fill="black"/>
</g>
</svg>
