<svg width="24" height="25" viewBox="0 0 24 25" fill="none" xmlns="http://www.w3.org/2000/svg">
<g id="basil:instagram-outline">
<path id="Vector" d="M16 7.31299C16 7.04777 16.1054 6.79342 16.2929 6.60588C16.4804 6.41835 16.7348 6.31299 17 6.31299C17.2652 6.31299 17.5196 6.41835 17.7071 6.60588C17.8946 6.79342 18 7.04777 18 7.31299C18 7.5782 17.8946 7.83256 17.7071 8.02009C17.5196 8.20763 17.2652 8.31299 17 8.31299C16.7348 8.31299 16.4804 8.20763 16.2929 8.02009C16.1054 7.83256 16 7.5782 16 7.31299Z" fill="#525252"/>
<path id="Vector_2" fill-rule="evenodd" clip-rule="evenodd" d="M12 7.56299C10.7402 7.56299 9.53204 8.06343 8.64124 8.95423C7.75045 9.84503 7.25 11.0532 7.25 12.313C7.25 13.5728 7.75045 14.7809 8.64124 15.6717C9.53204 16.5625 10.7402 17.063 12 17.063C13.2598 17.063 14.468 16.5625 15.3588 15.6717C16.2496 14.7809 16.75 13.5728 16.75 12.313C16.75 11.0532 16.2496 9.84503 15.3588 8.95423C14.468 8.06343 13.2598 7.56299 12 7.56299ZM8.75 12.313C8.75 11.451 9.09241 10.6244 9.7019 10.0149C10.3114 9.4054 11.138 9.06299 12 9.06299C12.862 9.06299 13.6886 9.4054 14.2981 10.0149C14.9076 10.6244 15.25 11.451 15.25 12.313C15.25 13.1749 14.9076 14.0016 14.2981 14.6111C13.6886 15.2206 12.862 15.563 12 15.563C11.138 15.563 10.3114 15.2206 9.7019 14.6111C9.09241 14.0016 8.75 13.1749 8.75 12.313Z" fill="#525252"/>
<path id="Vector_3" fill-rule="evenodd" clip-rule="evenodd" d="M17.2585 3.14651C13.7639 2.75911 10.2372 2.75911 6.74254 3.14651C4.73054 3.37151 3.10554 4.95651 2.86954 6.97851C2.45494 10.5231 2.45494 14.1039 2.86954 17.6485C3.10554 19.6705 4.72954 21.2555 6.74254 21.4805C10.2372 21.8675 13.7639 21.8675 17.2585 21.4805C19.2705 21.2555 20.8955 19.6705 21.1315 17.6485C21.5462 14.1039 21.5462 10.5231 21.1315 6.97851C20.8955 4.95651 19.2715 3.37151 17.2585 3.14651ZM6.90854 4.63651C10.2928 4.26138 13.7082 4.26138 17.0925 4.63651C18.4225 4.78651 19.4875 5.83551 19.6425 7.15351C20.0435 10.5818 20.0435 14.0452 19.6425 17.4735C19.5624 18.1186 19.2671 18.7177 18.8044 19.1743C18.3417 19.6308 17.7386 19.918 17.0925 19.9895C13.7082 20.3647 10.2928 20.3647 6.90854 19.9895C6.26248 19.918 5.6594 19.6308 5.1967 19.1743C4.734 18.7177 4.43872 18.1186 4.35854 17.4735C3.95759 14.0452 3.95759 10.5818 4.35854 7.15351C4.43872 6.50847 4.734 5.90929 5.1967 5.45276C5.6594 4.99623 6.26248 4.70802 6.90854 4.63651Z" fill="#525252"/>
</g>
</svg>
