<svg width="57" height="62" viewBox="0 0 57 62" fill="none" xmlns="http://www.w3.org/2000/svg">
<g id="Group 1">
<path id="Vector 1" d="M6.94375 19.8994C-5.54463 45.8673 12.1472 55.0574 22.5542 56.4065L22.6369 58.6365C21.7283 58.6641 19.9443 58.9504 20.0764 59.8755C20.2416 61.0318 21.3979 60.7014 21.7283 60.5362C22.0587 60.371 23.4152 59.5451 24.2062 60.6188C24.8389 61.4778 25.516 61.3622 25.7755 61.197C27.1631 60.4041 25.5827 59.2698 24.6191 58.8017V56.4065H27.7577C27.7577 56.6543 27.7908 57.2985 27.9229 57.8932C28.0551 58.4879 27.8679 58.7467 27.7577 58.8017C27.3172 58.8017 26.4693 58.9834 26.6014 59.7103C26.7666 60.6188 27.8403 60.6188 28.1707 60.1233C28.5011 59.6277 29.3271 59.4625 30.8964 59.5451C32.4657 59.6277 32.0527 58.3062 30.4834 58.3062C29.2279 58.3062 28.9691 57.7555 28.9967 57.4802L28.8315 56.4065C53.7752 52.6897 48.9021 34.3536 49.2325 32.0409C49.5629 29.7283 47.4154 26.4245 47.9109 18.3301C48.3074 11.8547 44.6622 6.43645 42.7901 4.53676C36.0448 -1.1623 19.4321 -6.06845 6.94375 19.8994Z" fill="#FDE504"/>
<path id="Vector 1 (Stroke)" fill-rule="evenodd" clip-rule="evenodd" d="M22.8229 54.63V54.6102H28.6972C34.6438 53.7076 38.6784 51.9615 41.4223 49.9163C44.1715 47.8672 45.7118 45.454 46.5738 43.0833C47.4443 40.6897 47.6364 38.3 47.617 36.3187C47.6072 35.3292 47.5454 34.4583 47.4925 33.7293L47.4892 33.6834C47.4646 33.3446 47.4407 33.0145 47.4284 32.7332C47.4168 32.4669 47.4078 32.1123 47.4542 31.7869C47.4928 31.5172 47.4708 31.1204 47.332 30.402C47.2646 30.0531 47.1787 29.6696 47.0764 29.215L47.0696 29.185C46.9708 28.7459 46.8598 28.2524 46.7497 27.7125C46.2923 25.4692 45.8585 22.4587 46.118 18.2204C46.4691 12.4864 43.2361 7.58438 41.5665 5.85483C38.4857 3.28095 33.2179 0.939304 27.3717 2.10462C21.5549 3.26407 14.6586 8.00196 8.56256 20.678C2.50687 33.2699 3.95921 41.3108 7.61491 46.3271C11.3847 51.5 17.8658 53.9874 22.7851 54.6251L22.8229 54.63ZM42.7901 4.53676C44.6622 6.43645 48.3074 11.8547 47.9109 18.3301C47.6024 23.3703 48.3186 26.553 48.8232 28.7956C49.129 30.1546 49.3571 31.1683 49.2325 32.0409C49.1918 32.3259 49.2301 32.8542 49.2819 33.5685C49.6462 38.594 50.6781 52.8258 29.554 56.2934C29.4698 56.3072 29.3853 56.3209 29.3004 56.3343C29.1453 56.359 28.989 56.383 28.8315 56.4065L28.9967 57.4802C28.9959 57.488 28.9953 57.496 28.995 57.5041C28.9934 57.5482 28.9988 57.598 29.0138 57.6508C29.0157 57.6574 29.0177 57.6641 29.0199 57.6709C29.033 57.7112 29.0517 57.753 29.0772 57.795C29.1484 57.9127 29.272 58.0321 29.4715 58.1258C29.5537 58.1644 29.6488 58.1987 29.7584 58.2267C29.9136 58.2664 30.0978 58.2935 30.3158 58.3027C30.3696 58.305 30.4254 58.3062 30.4834 58.3062C30.6564 58.3062 30.8154 58.3222 30.9592 58.3507C32.1197 58.5805 32.2926 59.6186 30.8964 59.5451C30.7525 59.5375 30.6149 59.532 30.4834 59.5287C30.3723 59.5259 30.2654 59.5246 30.1628 59.5248C29.8985 59.5256 29.6621 59.5367 29.4517 59.5589C29.1362 59.5922 28.8789 59.6503 28.6734 59.7356C28.5361 59.7926 28.4218 59.8617 28.3287 59.9435C28.324 59.9477 28.3193 59.9518 28.3148 59.956C28.259 60.0069 28.2112 60.0626 28.1707 60.1233M28.1047 60.2059C28.1291 60.1801 28.1512 60.1525 28.1707 60.1233L28.1047 60.2059ZM28.1047 60.2059C28.0143 60.3013 27.8928 60.3718 27.7577 60.413C27.313 60.5484 26.7206 60.366 26.6014 59.7103C26.5588 59.4758 26.6182 59.298 26.733 59.1648C26.9189 58.9491 27.25 58.8502 27.5286 58.8162C27.5508 58.8135 27.5727 58.8112 27.5942 58.8093C27.6526 58.8041 27.7078 58.8017 27.7577 58.8017C27.7809 58.7902 27.8074 58.7696 27.8337 58.7388C27.9178 58.6403 27.9991 58.437 27.9569 58.0887C27.9495 58.028 27.9384 57.9629 27.9229 57.8932C27.9052 57.8136 27.8893 57.7331 27.875 57.6528C27.8577 57.5555 27.8428 57.4584 27.8299 57.3635C27.788 57.0544 27.7684 56.7684 27.7612 56.5711C27.7588 56.5057 27.7577 56.45 27.7577 56.4065H24.6191V58.8017C24.7002 58.8411 24.7856 58.8852 24.8733 58.9334C25.0567 59.0342 25.2498 59.1531 25.4332 59.2845C25.6582 59.4457 25.8685 59.6258 26.028 59.8145C26.4148 60.2725 26.5024 60.7816 25.7755 61.197C25.6943 61.2487 25.5722 61.2955 25.4233 61.3092C25.0983 61.3389 24.6457 61.2103 24.2131 60.6281C24.2108 60.6251 24.2085 60.6219 24.2062 60.6188C24.1415 60.5311 24.0731 60.4561 24.0018 60.3923C23.9653 60.3596 23.9279 60.3299 23.89 60.3029C23.6536 60.1352 23.3922 60.0751 23.1339 60.0773C22.9803 60.0786 22.8278 60.1019 22.6823 60.1376C22.3163 60.2277 21.9949 60.3967 21.8127 60.4925C21.7799 60.5097 21.7515 60.5246 21.7283 60.5362C21.6721 60.5643 21.592 60.5972 21.497 60.6267C21.0332 60.7708 20.2135 60.8351 20.0764 59.8755C20.0119 59.4242 20.4035 59.1249 20.927 58.9335C20.9458 58.9267 20.9648 58.9199 20.9839 58.9133C21.4948 58.7371 22.1164 58.6587 22.5625 58.6393C22.5879 58.6382 22.6127 58.6373 22.6369 58.6365L22.5542 56.4065C12.1472 55.0574 -5.54463 45.8673 6.94375 19.8994C19.4321 -6.06845 36.0448 -1.1623 42.7901 4.53676M24.6594 60.9782C24.6663 60.987 24.6649 60.9864 24.6583 60.9768C24.6587 60.9773 24.6591 60.9777 24.6594 60.9782Z" fill="black"/>
<path id="Vector 2" d="M10.1682 16.0233C1.26877 16.0233 0.453169 31.3972 1.21381 40.117C1.24703 40.4978 1.74393 40.6053 1.94162 40.2781C3.20718 38.1834 5.91535 33.7695 10.1682 27.0085C15.3221 18.815 12.3157 16.2711 10.1682 16.0233Z" fill="#F79800"/>
<path id="Vector 2 (Stroke)" fill-rule="evenodd" clip-rule="evenodd" d="M2.07476 38.1452C3.55905 35.716 5.95965 31.8316 9.3269 26.4785C11.8633 22.4462 12.2242 20.05 11.9358 18.7522C11.6786 17.5949 10.85 17.1217 10.1091 17.0189C8.2472 17.0357 6.81386 17.832 5.67318 19.1993C4.49285 20.6142 3.62854 22.6452 3.03587 25.0394C2.01662 29.1568 1.85932 34.1018 2.07476 38.1452ZM4.14458 17.9241C5.62374 16.151 7.61102 15.028 10.1694 15.028H10.2267L10.2835 15.0345C11.6769 15.1953 13.3909 16.1234 13.8791 18.3203C14.3423 20.4047 13.6294 23.3773 11.0119 27.5384C6.76126 34.2959 4.05639 38.7046 2.79477 40.7928C2.12643 41.899 0.344946 41.5963 0.223443 40.2034C-0.161575 35.7897 -0.154748 29.644 1.10351 24.561C1.7321 22.0217 2.69279 19.6643 4.14458 17.9241Z" fill="black"/>
<path id="Vector 3" d="M45.9936 18.6782C54.6413 20.7796 51.8036 35.9113 49.0054 44.2049C48.8832 44.5671 48.3749 44.5542 48.2601 44.1896C47.525 41.8553 45.9357 36.9267 43.3996 29.3526C40.3262 20.1739 43.8483 18.4118 45.9936 18.6782Z" fill="#F79800"/>
<path id="Vector 3 (Stroke)" fill-rule="evenodd" clip-rule="evenodd" d="M48.6365 42.0855C47.7678 39.3745 46.3523 35.0331 44.3443 29.0362C42.8318 24.519 43.0469 22.1054 43.6337 20.9124C44.1568 19.8486 45.0738 19.5844 45.818 19.6595C47.6232 20.1155 48.828 21.2277 49.6136 22.8257C50.4264 24.4793 50.7867 26.6569 50.7973 29.1234C50.8154 33.365 49.8006 38.2074 48.6365 42.0855ZM51.4001 21.9475C50.3814 19.8753 48.7155 18.3147 46.2295 17.7106L46.1739 17.6971L46.1171 17.69C44.7252 17.5172 42.8405 18.0143 41.8473 20.0339C40.905 21.9499 40.8958 25.0068 42.4566 29.6683C44.9914 37.2385 46.5788 42.1611 47.3116 44.4882C47.6998 45.7209 49.5024 45.8475 49.9494 44.5227C51.3658 40.3247 52.8103 34.3512 52.7879 29.1148C52.7767 26.4989 52.3999 23.9813 51.4001 21.9475Z" fill="black"/>
<path id="Vector 5" d="M21.1522 23.6728L22.3531 16.657C22.4149 16.2962 22.7454 16.0394 23.1106 16.0646C31.113 16.6164 25.6406 17.9415 25.0658 20.5821C25.039 20.7051 24.9936 20.8247 24.9179 20.9253L22.4345 24.226C21.9815 24.8282 21.025 24.4156 21.1522 23.6728Z" fill="white"/>
<path id="Ellipse 1" d="M40.641 45.3447C40.641 51.8678 34.0957 54.9257 26.0217 54.9257C17.9476 54.9257 11.4023 51.8678 11.4023 45.3447C11.4023 38.8216 17.9476 33.5336 26.0217 33.5336C34.0957 33.5336 40.641 38.8216 40.641 45.3447Z" fill="#F79800"/>
<path id="Ellipse 2" d="M23.9568 11.4808C23.9568 12.9861 22.8105 14.2064 21.3964 14.2064C19.9823 14.2064 18.8359 12.9861 18.8359 11.4808C18.8359 9.97544 19.9823 8.75513 21.3964 8.75513C22.8105 8.75513 23.9568 9.97544 23.9568 11.4808Z" fill="black"/>
<path id="Ellipse 3" d="M36.5101 20.8139C36.5101 22.1824 35.4747 23.2918 34.1974 23.2918C32.9202 23.2918 31.8848 22.1824 31.8848 20.8139C31.8848 19.4454 32.9202 18.3361 34.1974 18.3361C35.4747 18.3361 36.5101 19.4454 36.5101 20.8139Z" fill="black"/>
<path id="Vector 4 (Stroke)" fill-rule="evenodd" clip-rule="evenodd" d="M19.3487 24.5916L20.5349 17.2246L22.1072 17.4778L20.921 24.8448C20.8004 25.5937 21.5283 26.1968 22.2418 25.9392L28.9929 23.5013C29.3481 23.373 29.6055 23.0559 29.616 22.6783C29.6879 20.0855 28.4484 16.1227 22.9383 16.6733C22.5107 16.716 22.1755 17.0536 22.1072 17.4778L20.5349 17.2246C20.7096 16.1396 21.5822 15.2083 22.7799 15.0887C25.9733 14.7696 28.2324 15.7628 29.6175 17.5065C30.9217 19.1486 31.25 21.2072 31.2079 22.7225C31.177 23.8338 30.4268 24.6767 29.5338 24.9992L22.7827 27.4371C20.9277 28.1069 19.0352 26.5387 19.3487 24.5916Z" fill="black"/>
</g>
</svg>
