<svg width="24" height="25" viewBox="0 0 24 25" fill="none" xmlns="http://www.w3.org/2000/svg">
<g id="et:linkedin" clip-path="url(#clip0_639_5677)">
<g id="Group">
<path id="Vector" d="M15.8216 17.4631V12.9723C15.8216 12.5074 15.6709 12.1208 15.3897 11.8507C15.1091 11.5811 14.709 11.4376 14.2291 11.4376C13.6886 11.4376 13.2539 11.5971 12.9512 11.9242L12.9511 11.9243C12.7418 12.1511 12.645 12.4085 12.6119 12.6256C12.5953 12.734 12.5945 12.8338 12.604 12.9163C12.6114 12.9802 12.626 13.0421 12.6501 13.09V17.4631H11.3336V10.1781H12.5706V10.3297V10.3301H12.6706M15.8216 17.4631L13.3156 10.6473C13.2565 10.6936 13.1855 10.7223 13.1109 10.7301C13.0362 10.7378 12.9609 10.7244 12.8935 10.6913M15.8216 17.4631H17.1786L17.1794 12.8066C17.1794 12.8066 17.1794 12.8066 17.1794 12.8066C17.1794 11.5733 16.6893 10.9246 16.1374 10.5785C15.5777 10.2276 14.9395 10.1788 14.6371 10.1788C14.0745 10.1788 13.7834 10.4079 13.4825 10.6449L13.4817 10.6455L13.4817 10.6455L13.3773 10.7261M15.8216 17.4631L13.3773 10.7261M12.6706 10.3301C12.67 10.4052 12.6906 10.4789 12.7301 10.5428C12.7695 10.6066 12.8261 10.6581 12.8935 10.6913M12.6706 10.3301V10.1781V10.3301ZM12.8935 10.6913L12.8494 10.781C12.9336 10.8224 13.0278 10.8393 13.1212 10.8295C13.2145 10.8198 13.3031 10.7841 13.377 10.7263C13.3771 10.7262 13.3772 10.7262 13.3773 10.7261M12.8935 10.6913L13.3773 10.7261M13.5716 17.9268V17.9268L13.5709 12.9408L13.5709 12.9246L13.5706 12.9239C13.5707 12.919 13.5709 12.9129 13.5713 12.9056C13.5726 12.8842 13.5757 12.854 13.5828 12.8194C13.5974 12.749 13.6274 12.6677 13.6861 12.6036C13.7791 12.5033 13.9526 12.4386 14.2284 12.4386C14.4554 12.4386 14.6012 12.4852 14.699 12.5677C14.7956 12.6491 14.8614 12.7789 14.8994 12.9815V17.9107C14.8563 18.0491 14.8895 18.1806 14.9728 18.2748C15.057 18.3699 15.1867 18.4214 15.3243 18.4131H17.6767C17.8143 18.4214 17.944 18.3699 18.0281 18.2748C18.1114 18.1805 18.1443 18.0489 18.1009 17.9105V12.8073C18.1406 11.4795 17.6866 10.5673 17.0087 9.9889C16.334 9.41312 15.4481 9.1771 14.6364 9.1771C14.1634 9.1771 13.7984 9.28447 13.5058 9.42892C13.4199 9.28039 13.256 9.17875 13.0618 9.2131H10.8409C10.7025 9.1928 10.5715 9.23803 10.4849 9.33181C10.3986 9.42541 10.3639 9.55936 10.4009 9.70164V17.9234C10.3629 18.0585 10.401 18.1868 10.4849 18.2777C10.5698 18.3698 10.6985 18.4214 10.8363 18.4131H13.0679C13.3495 18.4301 13.5716 18.2005 13.5716 17.9268ZM11.3336 10.0781H12.5706H11.3336ZM8.25011 5.4376C7.35338 5.4376 6.62461 6.16637 6.62461 7.0631C6.62461 7.95983 7.35338 8.6886 8.25011 8.6886C9.14684 8.6886 9.87561 7.95983 9.87561 7.0631C9.87561 6.16637 9.14684 5.4376 8.25011 5.4376ZM8.25011 7.6876C7.90634 7.6876 7.62561 7.40687 7.62561 7.0631C7.62561 6.71933 7.90634 6.4386 8.25011 6.4386C8.59388 6.4386 8.87461 6.71933 8.87461 7.0631C8.87461 7.40687 8.59388 7.6876 8.25011 7.6876ZM9.32111 9.17635H7.09511C6.95778 9.17635 6.82975 9.23202 6.74402 9.32868C6.65931 9.42417 6.61968 9.55577 6.65011 9.69919V17.9259C6.58468 18.2088 6.82998 18.4292 7.09828 18.4131H9.31793C9.5995 18.4301 9.82161 18.2005 9.82161 17.9268V9.67685C9.82161 9.54411 9.76888 9.4168 9.67502 9.32294C9.58115 9.22908 9.45385 9.17635 9.32111 9.17635ZM8.90011 17.4631H7.59561V10.1781H8.90011V17.4631Z" fill="#525252" stroke="#525252" stroke-width="0.2"/>
<path id="Vector_2" d="M12 1.06299C5.79594 1.06299 0.75 6.10893 0.75 12.313C0.75 18.517 5.79594 23.563 12 23.563C18.2041 23.563 23.25 18.517 23.25 12.313C23.25 6.10893 18.2041 1.06299 12 1.06299ZM12 22.3303C6.47685 22.3303 1.98269 17.8361 1.98269 12.313C1.98269 6.78984 6.47685 2.29568 12 2.29568C17.5231 2.29568 22.0173 6.78984 22.0173 12.313C22.0173 17.8361 17.5231 22.3303 12 22.3303Z" fill="#525252" stroke="#525252" stroke-width="0.5"/>
</g>
</g>
<defs>
<clipPath id="clip0_639_5677">
<rect width="24" height="24" fill="white" transform="translate(0 0.312988)"/>
</clipPath>
</defs>
</svg>
