<svg width="24" height="25" viewBox="0 0 24 25" fill="none" xmlns="http://www.w3.org/2000/svg">
<g clip-path="url(#clip0_266_20909)">
<path d="M15.8236 17.4631V12.9723C15.8236 12.5074 15.6728 12.1208 15.3917 11.8507C15.111 11.5811 14.711 11.4376 14.2311 11.4376C13.6906 11.4376 13.2559 11.5971 12.9532 11.9242L12.9531 11.9243C12.7437 12.1511 12.6469 12.4085 12.6138 12.6256C12.5973 12.734 12.5964 12.8338 12.606 12.9163C12.6134 12.9802 12.6279 13.0421 12.6521 13.09V17.4631H11.3356V10.1781H12.5726V10.3297V10.3301H12.6726M15.8236 17.4631L13.3176 10.6473C13.2585 10.6936 13.1875 10.7223 13.1128 10.7301C13.0382 10.7378 12.9628 10.7244 12.8954 10.6913M15.8236 17.4631H17.1806L17.1813 12.8066C17.1813 12.8066 17.1813 12.8066 17.1813 12.8066C17.1813 11.5733 16.6913 10.9246 16.1394 10.5785C15.5797 10.2276 14.9415 10.1788 14.6391 10.1788C14.0765 10.1788 13.7853 10.4079 13.4844 10.6449L13.4836 10.6455L13.4836 10.6455L13.3792 10.7261M15.8236 17.4631L13.3792 10.7261M12.6726 10.3301C12.672 10.4052 12.6926 10.4789 12.732 10.5428C12.7714 10.6066 12.8281 10.6581 12.8954 10.6913M12.6726 10.3301V10.1781V10.3301ZM12.8954 10.6913L12.8513 10.781C12.9356 10.8224 13.0298 10.8393 13.1232 10.8295C13.2164 10.8198 13.3051 10.7841 13.3789 10.7263C13.379 10.7262 13.3791 10.7262 13.3792 10.7261M12.8954 10.6913L13.3792 10.7261M13.5736 17.9268V17.9268L13.5728 12.9408L13.5728 12.9246L13.5726 12.9239C13.5726 12.919 13.5728 12.9129 13.5733 12.9056C13.5745 12.8842 13.5776 12.854 13.5848 12.8194C13.5994 12.749 13.6294 12.6677 13.6881 12.6036C13.7811 12.5033 13.9545 12.4386 14.2303 12.4386C14.4573 12.4386 14.6031 12.4852 14.701 12.5677C14.7976 12.6491 14.8634 12.7789 14.9013 12.9815V17.9107C14.8583 18.0491 14.8914 18.1806 14.9748 18.2748C15.0589 18.3699 15.1886 18.4214 15.3262 18.4131H17.6786C17.8163 18.4214 17.946 18.3699 18.03 18.2748C18.1134 18.1805 18.1463 18.0489 18.1028 17.9105V12.8073C18.1426 11.4795 17.6886 10.5673 17.0107 9.9889C16.3359 9.41312 15.45 9.1771 14.6383 9.1771C14.1654 9.1771 13.8004 9.28447 13.5078 9.42892C13.4219 9.28039 13.2579 9.17875 13.0637 9.2131H10.8428C10.7044 9.1928 10.5734 9.23803 10.4869 9.33181C10.4005 9.42541 10.3658 9.55936 10.4028 9.70164V17.9234C10.3648 18.0585 10.403 18.1868 10.4868 18.2777C10.5717 18.3698 10.7005 18.4214 10.8382 18.4131H13.0699C13.3514 18.4301 13.5736 18.2005 13.5736 17.9268ZM11.3356 10.0781H12.5726H11.3356ZM8.25206 5.4376C7.35533 5.4376 6.62656 6.16637 6.62656 7.0631C6.62656 7.95983 7.35533 8.6886 8.25206 8.6886C9.14879 8.6886 9.87756 7.95983 9.87756 7.0631C9.87756 6.16637 9.14879 5.4376 8.25206 5.4376ZM8.25206 7.6876C7.90829 7.6876 7.62756 7.40687 7.62756 7.0631C7.62756 6.71933 7.90829 6.4386 8.25206 6.4386C8.59583 6.4386 8.87656 6.71933 8.87656 7.0631C8.87656 7.40687 8.59583 7.6876 8.25206 7.6876ZM9.32306 9.17635H7.09706C6.95974 9.17635 6.83171 9.23202 6.74597 9.32868C6.66126 9.42417 6.62163 9.55577 6.65206 9.69919V17.9259C6.58663 18.2088 6.83193 18.4292 7.10023 18.4131H9.31988C9.60145 18.4301 9.82356 18.2005 9.82356 17.9268V9.67685C9.82356 9.54411 9.77083 9.4168 9.67697 9.32294C9.58311 9.22908 9.4558 9.17635 9.32306 9.17635ZM8.90206 17.4631H7.59756V10.1781H8.90206V17.4631Z" fill="#525252" stroke="#525252" stroke-width="0.2"/>
<path d="M12 1.06299C5.79594 1.06299 0.75 6.10893 0.75 12.313C0.75 18.517 5.79594 23.563 12 23.563C18.2041 23.563 23.25 18.517 23.25 12.313C23.25 6.10893 18.2041 1.06299 12 1.06299ZM12 22.3303C6.47685 22.3303 1.98269 17.8361 1.98269 12.313C1.98269 6.78984 6.47685 2.29568 12 2.29568C17.5231 2.29568 22.0173 6.78984 22.0173 12.313C22.0173 17.8361 17.5231 22.3303 12 22.3303Z" fill="#525252" stroke="#525252" stroke-width="0.5"/>
</g>
<defs>
<clipPath id="clip0_266_20909">
<rect width="24" height="24" fill="white" transform="translate(0 0.312988)"/>
</clipPath>
</defs>
</svg>
