<svg width="37" height="24" viewBox="0 0 37 24" fill="none" xmlns="http://www.w3.org/2000/svg">
<path id="Vector" d="M1.72165 0.500037C0.771116 0.500037 0 1.26292 0 2.2042V21.7959C0 22.737 0.771227 23.5 1.72165 23.5H35.2784C36.2289 23.5 37 22.7371 37 21.7958V2.20416C37 1.26303 36.2288 0.5 35.2784 0.5H1.72161L1.72165 0.500037ZM12.1325 3.2686C14.2445 3.2686 16.1842 3.99592 17.7068 5.21082C16.4258 6.3454 15.4703 7.83604 14.9989 9.52562H15.7377C16.1728 8.13178 16.9633 6.8908 18.0051 5.90668C19.047 6.8908 19.8373 8.13178 20.2725 9.52562H21.0229C20.545 7.84494 19.5882 6.3632 18.3081 5.23601C19.8336 4.0057 21.7809 3.26857 23.902 3.26857C28.7967 3.26857 32.7646 7.19658 32.7646 12.0424C32.7646 16.8881 28.7967 20.8161 23.902 20.8161C21.7456 20.8161 19.7683 20.0543 18.2317 18.7869C19.6063 17.6032 20.6196 16.0164 21.0831 14.2112H20.3603C19.9489 15.7263 19.1207 17.0739 18.0051 18.1277C16.8895 17.0739 16.0625 15.7263 15.6509 14.2112H14.963C15.4291 15.9903 16.4292 17.5549 17.7831 18.7274C16.2493 19.9791 14.2798 20.7314 12.1325 20.7314C7.23775 20.7314 3.26987 16.8223 3.26987 12C3.26987 7.17772 7.23775 3.2686 12.1325 3.2686ZM23.2371 9.43633C22.1722 9.43633 21.1362 10.3579 21.1362 12.0881C21.1362 13.2355 21.6958 13.9926 22.7966 13.9926C23.1078 13.9927 23.6037 13.8667 23.6037 13.8667L23.7679 12.8641C23.7679 12.8641 23.3153 13.0907 23.0047 13.0907C22.3504 13.0907 22.0878 12.5926 22.0878 12.0573C22.0878 10.9712 22.6508 10.3737 23.2776 10.3737C23.7476 10.3737 24.1251 10.6369 24.1251 10.6369L24.2755 9.66179C24.2755 9.66179 23.7166 9.43633 23.2371 9.43633ZM32.19 9.52104L31.2638 9.52331L31.0649 10.7296C31.0649 10.7296 30.7168 10.2615 30.1723 10.2615C29.3258 10.2615 28.6206 11.257 28.6206 12.4017C28.6206 13.1407 28.9959 13.8655 29.7653 13.8655C30.3188 13.8655 30.6256 13.489 30.6256 13.489L30.5851 13.8106H31.4847L32.19 9.52104ZM5.66329 9.5336L4.92562 13.8335H5.81477L6.37672 10.5912L6.45997 13.8335H7.09589L8.28222 10.5912L7.75612 13.8335H8.70076L9.42922 9.5336H7.96772L7.05774 12.1717L7.01035 9.53364H5.66333L5.66329 9.5336ZM14.9526 9.81286C14.9325 9.83282 14.415 12.787 14.415 13.1468C14.415 13.6795 14.7166 13.9175 15.1411 13.9136C15.4452 13.9111 15.6808 13.8354 15.7897 13.8038C15.8011 13.8007 15.8233 13.7946 15.8233 13.7946L15.9377 13.0255C15.8755 13.0255 15.7838 13.0518 15.703 13.0518C15.3861 13.0518 15.351 12.8849 15.3712 12.7611L15.6267 11.192H16.1089L16.2256 10.3416H15.7712L15.8637 9.81286H14.9526ZM25.7 10.2455C25.0794 10.2455 24.6038 10.4481 24.6038 10.4481L24.472 11.2378C24.472 11.2378 24.8648 11.0764 25.4583 11.0764C25.7953 11.0764 26.0422 11.1146 26.0422 11.3923C26.0422 11.561 26.0121 11.6235 26.0121 11.6235C26.0121 11.6235 25.7456 11.6006 25.6225 11.6006C24.8399 11.6006 24.0176 11.9401 24.0176 12.9614C24.0176 13.7661 24.5574 13.9503 24.8917 13.9503C25.5303 13.9503 25.8056 13.5304 25.8202 13.5291L25.7901 13.8793H26.5868L26.9429 11.3522C26.943 10.28 26.0204 10.2455 25.7 10.2455V10.2455ZM10.7554 10.2501C10.1326 10.2501 9.65466 10.4526 9.65466 10.4526L9.52287 11.2424C9.52287 11.2424 9.91691 11.081 10.5126 11.081C10.8509 11.081 11.0988 11.1193 11.0988 11.3969C11.0988 11.5655 11.0688 11.6281 11.0688 11.6281C11.0688 11.6281 10.8015 11.6052 10.678 11.6052C9.89235 11.6052 9.06732 11.9441 9.06732 12.9648C9.06732 13.7691 9.60819 13.9537 9.94374 13.9537C10.5846 13.9537 10.861 13.5338 10.8757 13.5325L10.8456 13.8827H11.6457L12.003 11.3568C12.003 10.2852 11.077 10.25 10.7554 10.25V10.2501ZM13.5813 10.2501C12.9124 10.2501 12.2331 10.5173 12.2331 11.4301C12.2331 12.4643 13.3651 12.3598 13.3651 12.7954C13.3651 13.0862 13.0492 13.1102 12.8055 13.1102C12.3837 13.1102 12.0044 12.9659 12.003 12.9729L11.8816 13.7626C11.9034 13.7693 12.1383 13.8736 12.8968 13.8736C13.1005 13.8736 14.2646 13.9248 14.2646 12.7245C14.2646 11.6024 13.187 11.8248 13.187 11.374C13.187 11.1495 13.362 11.0787 13.683 11.0787C13.8105 11.0787 14.3017 11.1188 14.3017 11.1188L14.415 10.321C14.415 10.3211 14.098 10.2501 13.5813 10.2501ZM17.7623 10.2501C16.8328 10.2503 16.1447 11.2396 16.1447 12.3571C16.1447 13.647 17.0069 13.9537 17.7415 13.9537C18.4195 13.9537 18.7185 13.8038 18.7185 13.8038L18.8804 12.9236C18.8804 12.9236 18.3646 13.148 17.8987 13.148C16.9062 13.148 17.0801 12.4166 17.0801 12.4166H18.959C18.959 12.4166 19.0804 11.8256 19.0804 11.5846C19.0804 10.9832 18.7772 10.2501 17.7623 10.2501ZM21.1282 10.2878C20.7094 10.2878 20.3985 10.8452 20.3985 10.8452L20.4818 10.3336H19.6123L19.0284 13.8656H19.9892C20.2614 12.3573 20.3111 11.1326 20.9605 11.3568C21.0741 10.773 21.1844 10.5475 21.3085 10.3004C21.3085 10.3004 21.2503 10.2878 21.1282 10.2878ZM28.9131 10.2878C28.4944 10.2878 28.1836 10.8452 28.1836 10.8452L28.2668 10.3336H27.3973L26.8134 13.8656H27.7731C28.0453 12.3573 28.0963 11.1326 28.7455 11.3568C28.8594 10.773 28.9696 10.5475 29.0936 10.3004C29.0936 10.3004 29.0352 10.2878 28.9131 10.2878ZM17.7577 11.0467C18.2855 11.0467 18.189 11.6365 18.189 11.6841H17.1495C17.1495 11.6233 17.2478 11.0467 17.7577 11.0467ZM30.318 11.1153C30.654 11.1152 30.8268 11.3399 30.8268 11.8684C30.8268 12.3479 30.5824 12.9889 30.0763 12.9889C29.7405 12.9889 29.5826 12.7143 29.5826 12.2839C29.5826 11.58 29.908 11.1153 30.318 11.1153ZM25.7011 12.317C25.8381 12.3172 25.8665 12.3304 25.8896 12.3365C25.8862 12.336 25.8856 12.3366 25.8988 12.3388C25.9162 12.4961 25.8028 13.2338 25.2548 13.2338C24.9722 13.2338 24.8998 13.0114 24.8998 12.8801C24.8998 12.6242 25.0344 12.317 25.7011 12.317ZM10.7566 12.3205C10.9123 12.3207 10.9292 12.3379 10.9555 12.3422C10.9729 12.4995 10.859 13.2361 10.3091 13.2361C10.0254 13.2361 9.95184 13.0147 9.95184 12.8836C9.95184 12.6278 10.0873 12.3205 10.7566 12.3205Z" fill="white"/>
</svg>
