<svg width="38" height="40" viewBox="0 0 38 40" fill="none" xmlns="http://www.w3.org/2000/svg">
<path d="M1.83333 22C0.82081 22 0 21.1792 0 20.1667C0 19.1541 0.820811 18.3333 1.83333 18.3333H31.1667C32.1792 18.3333 33 19.1541 33 20.1667C33 21.1792 32.1792 22 31.1667 22H1.83333ZM6.66666 12.6667C5.65414 12.6667 4.83333 11.8459 4.83333 10.8333C4.83333 9.82081 5.65414 9 6.66667 9H36C37.0125 9 37.8333 9.82081 37.8333 10.8333C37.8333 11.8459 37.0125 12.6667 36 12.6667H6.66666ZM1.83333 3.66667C0.82081 3.66667 0 2.84586 0 1.83333C0 0.820812 0.820811 0 1.83333 0H31.1667C32.1792 0 33 0.820812 33 1.83333C33 2.84586 32.1792 3.66667 31.1667 3.66667H1.83333Z" fill="#2E2E2E"/>
<path d="M8.7793 39H7.22168V34.8105C7.22168 34.3581 7.24121 33.8584 7.28027 33.3115H7.24121C7.15983 33.7412 7.08659 34.0505 7.02148 34.2393L5.38086 39H4.0918L2.42188 34.2881C2.3763 34.1611 2.30306 33.8356 2.20215 33.3115H2.1582C2.20052 34.0016 2.22168 34.6071 2.22168 35.1279V39H0.800781V31.998H3.11035L4.54102 36.1484C4.65495 36.4805 4.73796 36.8141 4.79004 37.1494H4.81934C4.90723 36.762 5 36.4251 5.09766 36.1387L6.52832 31.998H8.7793V39ZM16.5703 39H12.3711V31.998H16.4092V33.2822H13.9482V34.8398H16.2383V36.1191H13.9482V37.7207H16.5703V39ZM25.9922 39H24.4004L21.5146 34.6006C21.3454 34.3434 21.2282 34.1497 21.1631 34.0195H21.1436C21.1696 34.2669 21.1826 34.6445 21.1826 35.1523V39H19.6934V31.998H21.3926L24.1709 36.2607C24.2979 36.4528 24.415 36.6432 24.5225 36.832H24.542C24.516 36.6693 24.5029 36.3486 24.5029 35.8701V31.998H25.9922V39ZM35.3018 35.9678C35.3018 38.0706 34.3219 39.1221 32.3623 39.1221C30.4613 39.1221 29.5107 38.0951 29.5107 36.041V31.998H31.0928V36.0605C31.0928 37.1934 31.5355 37.7598 32.4209 37.7598C33.29 37.7598 33.7246 37.2129 33.7246 36.1191V31.998H35.3018V35.9678Z" fill="#2E2E2E"/>
</svg>
