<svg width="72" height="27" viewBox="0 0 72 27" fill="none" xmlns="http://www.w3.org/2000/svg">
<path id="Vector" d="M71.9993 0.898438L19.3253 23.3264C14.9573 25.1764 11.2893 26.1014 8.32126 26.1014C4.96126 26.1014 2.52426 24.9244 1.01026 22.5704C0.0602612 21.0584 -0.219739 19.1404 0.170261 16.8164C0.562261 14.4924 1.59826 12.0144 3.27826 9.38244C4.67826 7.25244 6.97526 4.45244 10.1693 0.982437C9.08448 2.68787 8.28972 4.56123 7.81726 6.52644C6.97726 10.1104 7.73326 12.7424 10.0853 14.4224C11.2053 15.2064 12.7453 15.5984 14.7053 15.5984C16.2713 15.5984 18.0353 15.3464 19.9973 14.8424L71.9993 0.898438Z" fill="black"/>
</svg>
