<svg width="25" height="25" viewBox="0 0 25 25" fill="none" xmlns="http://www.w3.org/2000/svg">
<g id="Notifications none" clip-path="url(#clip0_266_8014)">
<path id="Vector" d="M12.8613 22.6566C13.9613 22.6566 14.8613 21.7566 14.8613 20.6566H10.8613C10.8613 21.7566 11.7613 22.6566 12.8613 22.6566ZM18.8613 16.6566V11.6566C18.8613 8.58662 17.2313 6.01662 14.3613 5.33662V4.65662C14.3613 3.82662 13.6913 3.15662 12.8613 3.15662C12.0313 3.15662 11.3613 3.82662 11.3613 4.65662V5.33662C8.50133 6.01662 6.86133 8.57662 6.86133 11.6566V16.6566L4.86133 18.6566V19.6566H20.8613V18.6566L18.8613 16.6566ZM16.8613 17.6566H8.86133V11.6566C8.86133 9.17662 10.3713 7.15662 12.8613 7.15662C15.3513 7.15662 16.8613 9.17662 16.8613 11.6566V17.6566Z" fill="#393939"/>
</g>
<defs>
<clipPath id="clip0_266_8014">
<rect width="24" height="24" fill="white" transform="translate(0.861328 0.656616)"/>
</clipPath>
</defs>
</svg>
