<svg width="35" height="24" viewBox="0 0 35 24" fill="none" xmlns="http://www.w3.org/2000/svg">
<g id="fontisto:paypal" clip-path="url(#clip0_639_5696)">
<path id="Vector" d="M32.6667 23.5H2.33333C1.71449 23.5 1.121 23.2577 0.683417 22.8263C0.245833 22.395 0 21.81 0 21.2L0 2.8C0 2.19 0.245833 1.60499 0.683417 1.17365C1.121 0.742321 1.71449 0.5 2.33333 0.5L32.6667 0.5C33.2855 0.5 33.879 0.742321 34.3166 1.17365C34.7542 1.60499 35 2.19 35 2.8V21.2C35 21.81 34.7542 22.395 34.3166 22.8263C33.879 23.2577 33.2855 23.5 32.6667 23.5ZM13.6422 10.3948C13.6156 10.3951 13.5894 10.4013 13.5655 10.4129C13.5416 10.4246 13.5207 10.4413 13.5042 10.4619C13.4659 10.5003 13.4439 10.5518 13.4429 10.6056C13.4429 10.6257 13.5382 10.9123 13.7424 11.4997L14.1837 12.7705L14.3889 13.3628C14.619 14.0272 14.7392 14.3805 14.7496 14.4227C14.297 14.9751 13.8878 15.5607 13.5256 16.1745L13.4886 16.2416L13.4867 16.2655C13.4867 16.3614 13.5654 16.44 13.6636 16.44L13.6899 16.438H13.6889H14.8731C14.9283 16.4377 14.9825 16.4236 15.0306 16.3969C15.0787 16.3702 15.1192 16.332 15.1482 16.2857L15.1492 16.2847L19.0692 10.7082C19.0898 10.6814 19.101 10.6488 19.1012 10.6152L19.1003 10.6008V10.6018C19.099 10.548 19.0771 10.4966 19.039 10.458C19.0227 10.4375 19.0019 10.4208 18.9782 10.4092C18.9545 10.3976 18.9284 10.3914 18.9019 10.391H17.7168C17.6615 10.3913 17.6071 10.4055 17.5588 10.4321C17.5106 10.4588 17.4699 10.497 17.4407 10.5433L17.4397 10.5443L15.8064 12.9075L15.1307 10.6344C15.1134 10.5651 15.073 10.5035 15.0161 10.4594C14.9593 10.4153 14.889 10.3912 14.8167 10.391L14.7914 10.3919H14.7924L13.6422 10.3948ZM27.2319 10.2884H27.2067C26.4697 10.2884 25.8076 10.6037 25.3507 11.104L25.3487 11.1059C24.849 11.6154 24.57 12.2966 24.571 13.0053V13.0312V13.0302C24.569 13.058 24.569 13.0915 24.569 13.1241C24.569 13.6388 24.7722 14.1074 25.1028 14.4552L25.1018 14.4543C25.2898 14.6348 25.5137 14.7752 25.7592 14.8665C26.0048 14.9579 26.2669 14.9983 26.529 14.9852H26.5242C26.8518 14.9814 27.1629 14.9152 27.4468 14.7964L27.4312 14.8022C27.7181 14.6958 27.9611 14.53 28.1526 14.3192L28.1546 14.3173C28.1449 14.3719 28.1342 14.4179 28.1215 14.462L28.1235 14.4524C28.1061 14.5111 28.0957 14.5715 28.0924 14.6325V14.6345C28.0924 14.7955 28.1594 14.8769 28.2926 14.8769H29.3533C29.3948 14.8806 29.4365 14.876 29.4761 14.8635C29.5157 14.851 29.5524 14.8308 29.5839 14.8041C29.6154 14.7774 29.6412 14.7447 29.6597 14.708C29.6782 14.6713 29.6891 14.6313 29.6917 14.5904V14.5894L30.3217 10.6344C30.3276 10.6045 30.3266 10.5738 30.3187 10.5444C30.3108 10.515 30.2962 10.4877 30.276 10.4647C30.2585 10.441 30.2355 10.4217 30.209 10.4083C30.1825 10.395 30.1531 10.3881 30.1233 10.3881H28.9538C28.8108 10.3881 28.7204 10.5558 28.6912 10.8883C28.5201 10.6719 28.2951 10.5028 28.038 10.3975C27.7809 10.2922 27.5005 10.2543 27.2242 10.2875L27.2319 10.2865V10.2884ZM9.76792 10.2884H9.74069C9.00472 10.2884 8.34264 10.6037 7.88764 11.104L7.88569 11.1059C7.38593 11.6154 7.10698 12.2966 7.10792 13.0053V13.0312V13.0302C7.09504 13.2907 7.13558 13.5511 7.22712 13.7958C7.31867 14.0404 7.45933 14.2644 7.64069 14.4543L7.63972 14.4533C7.98389 14.783 8.45444 14.9862 8.97361 14.9862L9.06694 14.9843H9.06208C9.38486 14.9795 9.69111 14.9133 9.97014 14.7955L9.95458 14.8012C10.2453 14.692 10.4922 14.5271 10.6915 14.3173L10.6925 14.3163C10.6565 14.4102 10.6342 14.5195 10.6313 14.6325V14.6345C10.6313 14.7955 10.6993 14.8769 10.8315 14.8769H11.8912C11.9327 14.8806 11.9744 14.876 12.014 14.8635C12.0536 14.851 12.0903 14.8308 12.1218 14.8041C12.1534 14.7774 12.1791 14.7447 12.1977 14.708C12.2162 14.6713 12.227 14.6313 12.2296 14.5904V14.5894L12.8606 10.6344C12.8659 10.6048 12.8644 10.5744 12.8563 10.5454C12.8483 10.5163 12.8338 10.4895 12.8139 10.4667C12.7964 10.4429 12.7734 10.4236 12.7469 10.4103C12.7204 10.3969 12.691 10.39 12.6612 10.39H11.4917C11.3487 10.39 11.2583 10.5577 11.2301 10.8903C11.0572 10.6755 10.8318 10.5077 10.575 10.4024C10.3182 10.2971 10.0385 10.2579 9.76208 10.2884L9.76986 10.2875L9.76792 10.2884ZM31.7061 8.16667L31.6906 8.16571C31.6441 8.16555 31.5994 8.18261 31.5651 8.21351C31.5309 8.24441 31.5097 8.28687 31.5058 8.33246L30.5064 14.6373C30.4982 14.6677 30.4981 14.6996 30.5061 14.73C30.5141 14.7604 30.5299 14.7882 30.5521 14.8108C30.5705 14.8323 30.5934 14.8495 30.6193 14.8612C30.6451 14.873 30.6733 14.879 30.7018 14.8788H31.7226L31.7537 14.8807C31.8311 14.8807 31.9053 14.8505 31.96 14.7965C32.0147 14.7426 32.0454 14.6695 32.0454 14.5933V14.5913L33.0429 8.39571L33.0439 8.37462C33.0438 8.31998 33.0257 8.26684 32.9924 8.22321V8.22417C32.9749 8.20581 32.9538 8.19115 32.9304 8.1811C32.907 8.17105 32.8818 8.16581 32.8562 8.16571L32.8417 8.16667H31.7061ZM20.3603 8.16667C20.3185 8.16127 20.2761 8.16461 20.2358 8.17646C20.1955 8.18831 20.1581 8.20841 20.1262 8.23545C20.0943 8.26248 20.0685 8.29585 20.0505 8.33337C20.0326 8.3709 20.0228 8.41173 20.0219 8.45321L19.0235 14.6364C19.0183 14.6658 19.0198 14.6959 19.0276 14.7247C19.0355 14.7535 19.0497 14.7803 19.0692 14.8031C19.0863 14.827 19.1091 14.8464 19.1355 14.8597C19.1619 14.8731 19.1912 14.88 19.2208 14.8798H20.4896C20.5465 14.8797 20.6017 14.8602 20.6456 14.8246C20.6896 14.7889 20.7197 14.7393 20.7307 14.6843V14.6824L21.0078 12.9248C21.016 12.8478 21.0548 12.7772 21.1157 12.7283C21.182 12.6755 21.2626 12.6414 21.3471 12.6296H21.35C21.4287 12.6152 21.5192 12.6076 21.6115 12.6066C21.6932 12.6066 21.7914 12.6114 21.9042 12.622C22.0274 12.6359 22.1515 12.6423 22.2756 12.6411C22.9879 12.6423 23.6742 12.3776 24.1967 11.9003L24.1947 11.9022C24.4552 11.6299 24.6564 11.3079 24.7858 10.956C24.9152 10.6041 24.9702 10.2298 24.9472 9.85621V9.86387C24.9681 9.6168 24.9252 9.36852 24.8223 9.14227C24.7194 8.91601 24.56 8.71916 24.359 8.57012L24.3551 8.56725C23.8912 8.27807 23.3477 8.13778 22.7996 8.16571H22.8054L20.3603 8.16667ZM2.87778 8.16667C2.83711 8.16237 2.79598 8.16655 2.75705 8.17893C2.71813 8.19132 2.68228 8.21164 2.65184 8.23857C2.6214 8.26551 2.59705 8.29845 2.58037 8.33526C2.56368 8.37207 2.55504 8.41193 2.555 8.45225V8.45417L1.55556 14.6373C1.55034 14.6667 1.55173 14.6969 1.55963 14.7257C1.56752 14.7545 1.58173 14.7813 1.60125 14.8041C1.61843 14.8279 1.64118 14.8473 1.66758 14.8607C1.69398 14.874 1.72325 14.8809 1.75292 14.8807H2.92347C2.9652 14.8861 3.00762 14.8828 3.04796 14.871C3.0883 14.8591 3.12565 14.839 3.15757 14.812C3.18949 14.7849 3.21528 14.7516 3.23324 14.714C3.2512 14.6765 3.26093 14.6357 3.26181 14.5942L3.53889 12.9277C3.54731 12.851 3.58566 12.7805 3.64583 12.7312C3.71217 12.6784 3.79277 12.6443 3.87722 12.6325H3.88014C3.96617 12.6175 4.05334 12.6098 4.14069 12.6095H4.14167C4.22333 12.6095 4.32056 12.6143 4.43333 12.6248C4.55628 12.6388 4.67999 12.6452 4.80375 12.644C5.54556 12.644 6.22028 12.3632 6.72583 11.9032L6.72389 11.9051C6.98431 11.6327 7.18542 11.3107 7.31483 10.9588C7.44424 10.6069 7.49922 10.2327 7.47639 9.85908V9.86675C7.49731 9.61967 7.45433 9.3714 7.35147 9.14514C7.2486 8.91889 7.08921 8.72204 6.88819 8.573L6.88431 8.57012C6.4224 8.28201 5.88153 8.14145 5.33556 8.16763H5.34139L2.87778 8.16667ZM27.1678 13.7585L27.1211 13.7595C26.8727 13.7597 26.6323 13.6731 26.4425 13.5151L26.4444 13.5161C26.3567 13.4364 26.2867 13.3397 26.2388 13.2319C26.191 13.1242 26.1663 13.0079 26.1664 12.8903L26.1674 12.8472V12.8213C26.1674 12.4629 26.3142 12.138 26.5524 11.9022C26.7867 11.6655 27.1133 11.5189 27.475 11.5189H27.5071H27.5051L27.5382 11.518C27.7997 11.518 28.0379 11.6128 28.2207 11.769L28.2197 11.7681C28.31 11.8505 28.382 11.9504 28.4312 12.0616C28.4804 12.1727 28.5057 12.2927 28.5056 12.414L28.5046 12.46V12.4581V12.4811C28.5046 12.8347 28.3558 13.1548 28.1157 13.3819C27.9944 13.501 27.8505 13.5954 27.6922 13.6597C27.5339 13.724 27.3643 13.7569 27.1931 13.7566H27.1687L27.1678 13.7585ZM9.68819 13.7585L9.63958 13.7595C9.38486 13.7595 9.15055 13.6675 8.97167 13.5151L8.97264 13.5161C8.88715 13.4355 8.81912 13.3387 8.77266 13.2314C8.72621 13.1242 8.70229 13.0088 8.70236 12.8922L8.70333 12.8472V12.8213C8.70333 12.4629 8.85014 12.138 9.08833 11.9022C9.32264 11.6655 9.64833 11.5189 10.01 11.5189H10.044H10.0421L10.0751 11.518C10.3367 11.518 10.5749 11.6128 10.7576 11.769L10.7567 11.7681C10.8467 11.8504 10.9185 11.9502 10.9675 12.0612C11.0165 12.1722 11.0417 12.292 11.0415 12.413L11.0406 12.46V12.4581V12.4916C11.0406 12.8452 10.8918 13.1634 10.6517 13.3905C10.4025 13.6269 10.07 13.7588 9.72417 13.7585H9.68819ZM21.2644 11.3052L21.526 9.68467C21.5281 9.66081 21.5349 9.63759 21.5461 9.61634C21.5573 9.59509 21.5726 9.57622 21.5912 9.56082C21.6098 9.54542 21.6313 9.53379 21.6545 9.52659C21.6777 9.51939 21.7021 9.51677 21.7262 9.51888H22.0024L22.0617 9.51792C22.2299 9.51792 22.3961 9.52942 22.5585 9.55146L22.54 9.54954C22.6907 9.57638 22.8219 9.64346 22.925 9.73929C22.9837 9.794 23.0305 9.85997 23.0624 9.93314C23.0944 10.0063 23.1108 10.0851 23.1107 10.1648L23.1097 10.2012V10.1993C23.1302 10.3594 23.1101 10.522 23.0514 10.6726C22.9928 10.8233 22.8972 10.9573 22.7733 11.0627L22.7724 11.0637C22.4626 11.238 22.1074 11.318 21.7515 11.2937H21.7574L21.2664 11.309L21.2644 11.3052ZM3.78486 11.3052L4.04639 9.68467C4.04834 9.66076 4.05509 9.63748 4.06625 9.61616C4.0774 9.59485 4.09274 9.57593 4.11137 9.56051C4.13001 9.54509 4.15156 9.53346 4.17478 9.52632C4.19801 9.51917 4.22244 9.51664 4.24667 9.51888H4.53736C4.84863 9.4964 5.16023 9.55802 5.43861 9.69712L5.42889 9.69233C5.61264 9.80829 5.67486 10.0546 5.61361 10.4264C5.60892 10.5652 5.57043 10.7009 5.5014 10.822C5.43236 10.9431 5.3348 11.046 5.21694 11.1222L5.21403 11.1241C4.75322 11.2913 4.25982 11.353 3.77125 11.3042L3.78486 11.3052Z" fill="white"/>
</g>
<defs>
<clipPath id="clip0_639_5696">
<rect width="35" height="23" fill="white" transform="translate(0 0.5)"/>
</clipPath>
</defs>
</svg>
