<svg width="25" height="25" viewBox="0 0 25 25" fill="none" xmlns="http://www.w3.org/2000/svg">
<mask id="mask0_1_31" style="mask-type:luminance" maskUnits="userSpaceOnUse" x="0" y="0" width="25" height="25">
<path d="M24.86 0.656601H0.859985V24.6566H24.86V0.656601Z" fill="white"/>
</mask>
<g mask="url(#mask0_1_31)">
<path d="M12.6899 12.2175C14.2799 12.2175 15.65 11.6479 16.77 10.524C17.9 9.4003 18.47 8.0253 18.47 6.4369C18.47 4.849 17.9 3.4739 16.77 2.3498C15.65 1.2263 14.2699 0.656601 12.6899 0.656601C11.0999 0.656601 9.71998 1.2263 8.59998 2.35C7.47998 3.4737 6.91003 4.8488 6.91003 6.4369C6.91003 8.0253 7.47998 9.4004 8.59998 10.5242C9.71998 11.6477 11.0999 12.2175 12.6899 12.2175ZM9.58997 3.3444C10.46 2.4822 11.4699 2.063 12.6899 2.063C13.9099 2.063 14.92 2.4822 15.78 3.3444C16.64 4.2068 17.0601 5.2185 17.0601 6.4369C17.0601 7.6556 16.64 8.6671 15.78 9.5295C14.92 10.3919 13.9099 10.8111 12.6899 10.8111C11.4699 10.8111 10.46 10.3918 9.58997 9.5295C8.72997 8.6673 8.31006 7.6556 8.31006 6.4369C8.31006 5.2185 8.72997 4.2068 9.58997 3.3444Z" fill="black"/>
<path d="M22.8 19.1114C22.77 18.6437 22.7 18.1336 22.61 17.5949C22.51 17.0522 22.39 16.5391 22.24 16.0702C22.08 15.5855 21.87 15.1069 21.61 14.6482C21.34 14.1721 21.02 13.7576 20.66 13.4164C20.29 13.0596 19.8301 12.7726 19.3101 12.5634C18.7801 12.3552 18.1999 12.2497 17.5699 12.2497C17.3299 12.2497 17.09 12.3502 16.63 12.6481C16.35 12.8318 16.02 13.0442 15.65 13.2791C15.34 13.4794 14.91 13.6671 14.39 13.837C13.87 14.0031 13.35 14.0873 12.84 14.0873C12.32 14.0873 11.8 14.0031 11.29 13.837C10.76 13.6673 10.34 13.4796 10.02 13.2793C9.66002 13.0466 9.33005 12.8342 9.05005 12.6479C8.59005 12.35 8.34999 12.2495 8.10999 12.2495C7.47999 12.2495 6.9 12.3552 6.37 12.5635C5.85 12.7725 5.39001 13.0594 5.01001 13.4166C4.66001 13.7579 4.33995 14.1723 4.06995 14.6482C3.80995 15.1069 3.59994 15.5853 3.43994 16.0704C3.28994 16.5393 3.16995 17.0522 3.06995 17.5949C2.96995 18.1329 2.91 18.6432 2.88 19.1119C2.84 19.5702 2.82996 20.0472 2.82996 20.5292C2.82996 21.782 3.23001 22.7962 4.01001 23.5442C4.79001 24.2823 5.81006 24.6565 7.06006 24.6565H18.62C19.87 24.6565 20.89 24.2823 21.67 23.5442C22.45 22.7967 22.85 21.7821 22.85 20.529C22.85 20.0454 22.83 19.5684 22.8 19.1114ZM20.7 22.5252C20.19 23.013 19.51 23.2501 18.62 23.2501H7.06006C6.17006 23.2501 5.48998 23.013 4.97998 22.5254C4.47998 22.0469 4.22998 21.3938 4.22998 20.5292C4.22998 20.0795 4.25003 19.6354 4.28003 19.2092C4.31003 18.7909 4.36995 18.3315 4.44995 17.8434C4.53995 17.3613 4.65003 16.9088 4.78003 16.4992C4.91003 16.1064 5.08004 15.7175 5.29004 15.3429C5.50004 14.9858 5.72999 14.6795 5.98999 14.4327C6.22999 14.2018 6.53001 14.0128 6.89001 13.8711C7.22001 13.74 7.59 13.6682 8 13.6574C8.05 13.6836 8.14003 13.7336 8.28003 13.8262C8.57003 14.0146 8.90002 14.2296 9.27002 14.4649C9.68002 14.7297 10.22 14.9688 10.86 15.1752C11.51 15.3865 12.18 15.4938 12.84 15.4938C13.5 15.4938 14.1699 15.3865 14.8199 15.1753C15.4599 14.9686 16 14.7297 16.41 14.4645C16.79 14.2236 17.11 14.0148 17.4 13.8262C17.54 13.7338 17.6301 13.6836 17.6801 13.6574C18.0801 13.6682 18.46 13.74 18.79 13.8711C19.15 14.0128 19.4499 14.202 19.6899 14.4327C19.9499 14.6793 20.18 14.9857 20.39 15.3431C20.6 15.7175 20.77 16.1066 20.9 16.499C21.03 16.9092 21.14 17.3614 21.22 17.8432C21.31 18.3323 21.37 18.7919 21.4 19.2093C21.43 19.6339 21.44 20.0782 21.45 20.5292C21.44 21.394 21.2 22.0469 20.7 22.5252Z" fill="black"/>
</g>
</svg>
