<svg width="25" height="25" viewBox="0 0 25 25" fill="none" xmlns="http://www.w3.org/2000/svg">
<g clip-path="url(#clip0_266_15474)">
<path d="M12.6869 12.2174C14.2751 12.2174 15.6503 11.6477 16.7742 10.5238C17.8977 9.40013 18.4675 8.02519 18.4675 6.43676C18.4675 4.84887 17.8979 3.47375 16.774 2.34967C15.6501 1.22613 14.275 0.656494 12.6869 0.656494C11.0984 0.656494 9.72351 1.22613 8.59979 2.34985C7.47607 3.47357 6.90625 4.84869 6.90625 6.43676C6.90625 8.02519 7.47607 9.40031 8.59979 10.524C9.72388 11.6476 11.099 12.2174 12.6869 12.2174ZM9.59442 3.34429C10.4567 2.48205 11.4681 2.06292 12.6869 2.06292C13.9055 2.06292 14.9171 2.48205 15.7795 3.34429C16.6418 4.20672 17.0611 5.21838 17.0611 6.43676C17.0611 7.6555 16.6418 8.66698 15.7795 9.5294C14.9171 10.3918 13.9055 10.811 12.6869 10.811C11.4685 10.811 10.457 10.3916 9.59442 9.5294C8.73199 8.66716 8.31268 7.6555 8.31268 6.43676C8.31268 5.21838 8.73199 4.20672 9.59442 3.34429Z" fill="white"/>
<path d="M22.8029 19.1114C22.7705 18.6437 22.705 18.1336 22.6085 17.5949C22.511 17.0522 22.3856 16.5391 22.2355 16.0702C22.0802 15.5855 21.8694 15.1069 21.6085 14.6482C21.3381 14.1721 21.0202 13.7576 20.6635 13.4164C20.2905 13.0596 19.8339 12.7726 19.3058 12.5634C18.7795 12.3552 18.1964 12.2497 17.5725 12.2497C17.3275 12.2497 17.0906 12.3502 16.633 12.6481C16.3514 12.8318 16.022 13.0442 15.6543 13.2791C15.3399 13.4794 14.914 13.6671 14.3879 13.837C13.8747 14.0031 13.3536 14.0873 12.8391 14.0873C12.3249 14.0873 11.8038 14.0031 11.2902 13.837C10.7646 13.6673 10.3386 13.4796 10.0247 13.2793C9.66052 13.0466 9.33093 12.8342 9.0451 12.6479C8.58789 12.35 8.35095 12.2495 8.10596 12.2495C7.48193 12.2495 6.89893 12.3552 6.37286 12.5635C5.84515 12.7725 5.38831 13.0594 5.01495 13.4166C4.65826 13.7579 4.34039 14.1723 4.07013 14.6482C3.80957 15.1069 3.59863 15.5853 3.44336 16.0704C3.2934 16.5393 3.16797 17.0522 3.07056 17.5949C2.97388 18.1329 2.90851 18.6432 2.8761 19.1119C2.84424 19.5702 2.82812 20.0472 2.82812 20.5292C2.82812 21.782 3.22638 22.7962 4.01172 23.5442C4.78735 24.2823 5.81348 24.6565 7.06171 24.6565H18.6179C19.8657 24.6565 20.8918 24.2823 21.6677 23.5442C22.4532 22.7967 22.8514 21.7821 22.8514 20.529C22.8513 20.0454 22.835 19.5684 22.8029 19.1114ZM20.6979 22.5252C20.1854 23.013 19.505 23.2501 18.6177 23.2501H7.06171C6.17419 23.2501 5.49377 23.013 4.98145 22.5254C4.47882 22.0469 4.23456 21.3938 4.23456 20.5292C4.23456 20.0795 4.24939 19.6354 4.27905 19.2092C4.30798 18.7909 4.36713 18.3315 4.45483 17.8434C4.54144 17.3613 4.65167 16.9088 4.78278 16.4992C4.90857 16.1064 5.08014 15.7175 5.29291 15.3429C5.49597 14.9858 5.72961 14.6795 5.98743 14.4327C6.22858 14.2018 6.53253 14.0128 6.89069 13.8711C7.22192 13.74 7.59418 13.6682 7.99829 13.6574C8.04755 13.6836 8.13525 13.7336 8.27734 13.8262C8.56647 14.0146 8.89972 14.2296 9.26813 14.4649C9.68341 14.7297 10.2184 14.9688 10.8577 15.1752C11.5112 15.3865 12.1777 15.4938 12.8392 15.4938C13.5008 15.4938 14.1675 15.3865 14.8206 15.1753C15.4604 14.9686 15.9952 14.7297 16.4111 14.4645C16.7881 14.2236 17.112 14.0148 17.4011 13.8262C17.5432 13.7338 17.6309 13.6836 17.6802 13.6574C18.0845 13.6682 18.4567 13.74 18.7881 13.8711C19.1461 14.0128 19.4501 14.202 19.6912 14.4327C19.949 14.6793 20.1827 14.9857 20.3857 15.3431C20.5987 15.7175 20.7704 16.1066 20.8961 16.499C21.0273 16.9092 21.1378 17.3614 21.2242 17.8432C21.3117 18.3323 21.371 18.7919 21.4 19.2093V19.2097C21.4298 19.6343 21.4448 20.0782 21.445 20.5292C21.4448 21.394 21.2006 22.0469 20.6979 22.5252Z" fill="white"/>
</g>
<defs>
<clipPath id="clip0_266_15474">
<rect width="24" height="24" fill="white" transform="translate(0.859375 0.656494)"/>
</clipPath>
</defs>
</svg>
