<svg width="64" height="49" viewBox="0 0 64 49" fill="none" xmlns="http://www.w3.org/2000/svg">
<path id="Vector" d="M63.0935 0.896165C61.9989 -0.50296 60.0852 0.617916 59.2426 1.10617C53.2471 4.63942 52.3625 10.8607 50.273 14.4333C48.6297 17.2945 45.9365 19.3945 43.5005 19.5573C41.6997 19.6859 39.7467 19.3368 37.8095 18.4942C33.0661 16.444 30.512 13.7902 29.8899 13.3229C28.6115 12.3517 18.7861 2.78354 10.7799 2.39242C10.7799 2.39242 9.80337 0.423666 9.55925 0.389541C8.97649 0.323916 8.378 1.57342 7.94225 1.70467C7.54849 1.84379 6.85812 0.360666 6.45912 0.426291C6.05749 0.478791 5.66637 1.96454 4.88412 2.72842C4.30662 3.28754 3.60837 3.25342 3.21199 3.94379C3.07549 4.19579 3.12274 4.63942 2.96787 5.04629C2.63449 5.88629 1.52149 5.97554 1.51099 6.87592C1.51099 7.87604 2.44812 8.06767 3.26712 8.76592C3.91812 9.32242 3.96274 9.71617 4.72137 9.97604C5.39862 10.207 6.38037 9.48517 7.25187 9.74504C7.97899 9.95767 8.67725 10.1125 8.83212 10.8554C8.97387 11.5274 8.83212 12.5827 7.93962 12.4645C7.64562 12.4252 6.36987 12.0078 4.79487 12.1758C2.89174 12.3779 0.718245 12.9869 0.50562 15.0895C0.397995 16.2629 1.85487 17.6358 3.275 17.3628C4.24887 17.1764 3.78949 16.0345 4.32237 15.4833C5.02324 14.7745 8.97387 17.9613 12.6489 17.9613C14.2055 17.9613 15.3552 17.5675 16.4997 16.3732C16.6047 16.297 16.7439 16.1054 16.9066 16.0844C17.0897 16.1301 17.2631 16.2084 17.4185 16.3154C20.3874 18.67 22.6265 23.4029 33.5097 23.458C35.0375 23.4764 36.791 24.1904 38.2242 25.4977C39.4842 26.6343 40.2297 28.4508 40.9464 30.2883C42.0436 33.0524 43.994 35.7194 46.9629 38.6962C47.1204 38.8747 49.5616 40.7437 49.7454 40.8828C49.7769 40.909 49.9659 41.3212 49.8845 41.5522C49.832 43.3634 49.5616 48.5609 53.4676 48.7788C54.4284 48.8313 54.1895 48.1724 54.1895 47.7025C54.1764 46.8074 54.0189 45.9044 54.4861 44.9725C55.1502 43.7178 53.1054 43.1114 53.15 40.363C53.1999 38.305 51.4569 38.6542 50.567 37.0818C50.0682 36.1814 49.601 35.6853 49.6482 34.5985C49.8399 28.351 48.2911 24.235 47.5351 23.2402C46.9392 22.4684 46.4247 22.1823 46.9917 21.8227C50.2467 19.6833 50.9949 17.6909 50.9949 17.6909C52.7274 13.6458 54.2919 9.96029 56.4417 8.31967C56.8775 8.00467 57.9879 7.16467 58.6782 6.84967C60.6811 5.89942 61.7574 5.33242 62.3217 4.78117C63.2562 3.89654 63.9886 2.01704 63.0935 0.896165Z" fill="black"/>
</svg>
