<svg width="27" height="27" viewBox="0 0 27 27" fill="none" xmlns="http://www.w3.org/2000/svg">
<g clip-path="url(#clip0_266_22692)">
<path d="M13.1324 24.4078C19.1555 24.4078 24.0382 19.5251 24.0382 13.502C24.0382 7.47888 19.1555 2.59619 13.1324 2.59619C7.10925 2.59619 2.22656 7.47888 2.22656 13.502C2.22656 19.5251 7.10925 24.4078 13.1324 24.4078Z" stroke="#30BD75" stroke-width="3.73913" stroke-linecap="round" stroke-linejoin="round"/>
<path d="M9.96875 10.2302C10.2251 9.50136 10.7312 8.88675 11.3974 8.49526C12.0635 8.10377 12.8467 7.96067 13.6082 8.09129C14.3697 8.22191 15.0605 8.61783 15.5581 9.20893C16.0556 9.80003 16.328 10.5482 16.3268 11.3208C16.3268 13.502 13.0551 14.5925 13.0551 14.5925" stroke="#30BD75" stroke-width="3.73913" stroke-linecap="round" stroke-linejoin="round"/>
<path d="M13.1328 18.9548H13.1447" stroke="#30BD75" stroke-width="3.73913" stroke-linecap="round" stroke-linejoin="round"/>
</g>
<defs>
<clipPath id="clip0_266_22692">
<rect width="26.1739" height="26.1739" fill="white" transform="translate(0.046875 0.413574)"/>
</clipPath>
</defs>
</svg>
