<svg width="108" height="88" viewBox="0 0 108 88" fill="none" xmlns="http://www.w3.org/2000/svg">
<g id="Frame">
<path id="Union" fill-rule="evenodd" clip-rule="evenodd" d="M72.8436 53.958C72.8436 64.3883 64.3883 72.8436 53.958 72.8436C43.5278 72.8436 35.0724 64.3883 35.0724 53.958C35.0724 43.5278 43.5278 35.0724 53.958 35.0724C64.3883 35.0724 72.8436 43.5278 72.8436 53.958ZM75.002 53.958C75.002 65.5803 65.5803 75.002 53.958 75.002C42.3358 75.002 32.9141 65.5803 32.9141 53.958C32.9141 42.3358 42.3358 32.9141 53.958 32.9141C65.5803 32.9141 75.002 42.3358 75.002 53.958ZM54.0332 38.3114C54.6292 38.3114 55.1124 38.7946 55.1124 39.3906V48.024C55.1124 48.6201 54.6292 49.1032 54.0332 49.1032C53.4372 49.1032 52.954 48.6201 52.954 48.024V39.3906C52.954 38.7946 53.4372 38.3114 54.0332 38.3114ZM65.2175 44.4701C65.6389 44.0487 65.6389 43.3654 65.2175 42.9439C64.796 42.5225 64.1127 42.5225 63.6913 42.9439L57.5865 49.0487C57.1651 49.4701 57.1651 50.1534 57.5865 50.5749C58.008 50.9963 58.6913 50.9963 59.1127 50.5749L65.2175 44.4701ZM50.4811 57.6822C50.9026 58.1037 50.9026 58.787 50.4811 59.2084L44.3764 65.3132C43.9549 65.7346 43.2716 65.7346 42.8502 65.3132C42.4287 64.8917 42.4287 64.2084 42.8502 63.787L48.9549 57.6822C49.3764 57.2608 50.0597 57.2608 50.4811 57.6822ZM57.5865 57.6822C58.008 57.2608 58.6913 57.2608 59.1127 57.6822L65.2175 63.787C65.6389 64.2084 65.6389 64.8917 65.2175 65.3132C64.796 65.7346 64.1127 65.7346 63.6913 65.3132L57.5865 59.2084C57.1651 58.787 57.1651 58.1037 57.5865 57.6822ZM42.8502 42.9439C43.2716 42.5225 43.9549 42.5225 44.3764 42.9439L50.4811 49.0487C50.9026 49.4701 50.9026 50.1534 50.4811 50.5749C50.0597 50.9963 49.3764 50.9963 48.9549 50.5749L42.8502 44.4701C42.4287 44.0487 42.4287 43.3654 42.8502 42.9439ZM55.1124 60.2324C55.1124 59.6364 54.6292 59.1532 54.0332 59.1532C53.4372 59.1532 52.954 59.6364 52.954 60.2324V68.8658C52.954 69.4619 53.4372 69.945 54.0332 69.945C54.6292 69.945 55.1124 69.4619 55.1124 68.8658V60.2324ZM49.0092 54.1273C49.0092 54.7233 48.526 55.2064 47.93 55.2064H39.2966C38.7006 55.2064 38.2174 54.7233 38.2174 54.1273C38.2174 53.5312 38.7006 53.0481 39.2966 53.0481H47.93C48.526 53.0481 49.0092 53.5312 49.0092 54.1273ZM68.7718 55.2064C69.3678 55.2064 69.851 54.7233 69.851 54.1273C69.851 53.5312 69.3678 53.0481 68.7718 53.0481H60.1384C59.5424 53.0481 59.0592 53.5312 59.0592 54.1273C59.0592 54.7233 59.5424 55.2064 60.1384 55.2064H68.7718Z" fill="#E4086F"/>
</g>
</svg>
