<svg width="16" height="15" viewBox="0 0 16 15" fill="none" xmlns="http://www.w3.org/2000/svg">
<path id="Union" fill-rule="evenodd" clip-rule="evenodd" d="M7.44508 0.156616C3.81019 0.156616 0.861328 3.10548 0.861328 6.74037C0.861328 10.3753 3.81019 13.3241 7.44508 13.3241C8.98702 13.3241 10.4055 12.7935 11.5278 11.9049L13.8865 14.2636C14.1898 14.5669 14.6815 14.5669 14.9847 14.2636C15.288 13.9604 15.288 13.4687 14.9847 13.1654L12.6241 10.8048C13.5039 9.68538 14.0288 8.27393 14.0288 6.74037C14.0288 3.10548 11.08 0.156616 7.44508 0.156616ZM11.4208 10.4863C12.3429 9.50811 12.9082 8.18994 12.9082 6.74037C12.9082 3.72439 10.4611 1.27726 7.44508 1.27726C4.4291 1.27726 1.98197 3.72439 1.98197 6.74037C1.98197 9.75635 4.4291 12.2035 7.44508 12.2035C8.90196 12.2035 10.2261 11.6325 11.2058 10.7021C11.2339 10.6599 11.2665 10.6199 11.3038 10.5827C11.3403 10.5462 11.3795 10.514 11.4208 10.4863Z" fill="white"/>
</svg>
