<svg width="25" height="25" viewBox="0 0 25 25" fill="none" xmlns="http://www.w3.org/2000/svg">
<path id="Union" fill-rule="evenodd" clip-rule="evenodd" d="M11.8716 0.656616C5.79284 0.656616 0.861328 5.59405 0.861328 11.6802C0.861328 17.7663 5.79284 22.7037 11.8716 22.7037C14.4506 22.7037 16.8231 21.815 18.7001 20.3269L22.6443 24.2758C23.1514 24.7836 23.9737 24.7836 24.4809 24.2758C24.988 23.768 24.988 22.9448 24.4809 22.437L20.5333 18.4847C22.0044 16.6105 22.8819 14.2475 22.8819 11.6802C22.8819 5.59405 17.9504 0.656616 11.8716 0.656616ZM18.5224 17.9502C20.0632 16.3125 21.0078 14.1063 21.0078 11.6802C21.0078 6.63033 16.9154 2.53296 11.8716 2.53296C6.82787 2.53296 2.73542 6.63033 2.73542 11.6802C2.73542 16.73 6.82787 20.8274 11.8716 20.8274C14.3077 20.8274 16.5218 19.8716 18.1601 18.3143C18.2073 18.243 18.2623 18.1754 18.325 18.1125C18.3865 18.051 18.4527 17.9968 18.5224 17.9502Z" fill="#6A6A6A"/>
</svg>
