<svg width="21" height="20" viewBox="0 0 21 20" fill="none" xmlns="http://www.w3.org/2000/svg">
<path d="M16.1376 12.3176C15.8786 12.5686 15.7596 12.9316 15.8186 13.2876L16.7076 18.2076C16.7826 18.6246 16.6066 19.0466 16.2576 19.2876C15.9156 19.5376 15.4606 19.5676 15.0876 19.3676L10.6586 17.0576C10.5046 16.9756 10.3336 16.9316 10.1586 16.9266H9.88763C9.79363 16.9406 9.70163 16.9706 9.61763 17.0166L5.18763 19.3376C4.96863 19.4476 4.72063 19.4866 4.47763 19.4476C3.88563 19.3356 3.49063 18.7716 3.58763 18.1766L4.47763 13.2566C4.53663 12.8976 4.41763 12.5326 4.15863 12.2776L0.547626 8.77756C0.245626 8.48456 0.140626 8.04456 0.278626 7.64756C0.412626 7.25156 0.754626 6.96256 1.16763 6.89756L6.13763 6.17656C6.51563 6.13756 6.84763 5.90756 7.01763 5.56756L9.20763 1.07756C9.25963 0.977559 9.32663 0.885559 9.40763 0.807559L9.49763 0.737559C9.54463 0.685559 9.59863 0.642559 9.65863 0.607559L9.76763 0.567559L9.93763 0.497559H10.3586C10.7346 0.536559 11.0656 0.761559 11.2386 1.09756L13.4576 5.56756C13.6176 5.89456 13.9286 6.12156 14.2876 6.17656L19.2576 6.89756C19.6776 6.95756 20.0286 7.24756 20.1676 7.64756C20.2986 8.04856 20.1856 8.48856 19.8776 8.77756L16.1376 12.3176Z" fill="#DDDDDD"/>
</svg>
