<svg width="21" height="20" viewBox="0 0 21 20" fill="none" xmlns="http://www.w3.org/2000/svg">
<path d="M16.8486 12.3176C16.5896 12.5686 16.4706 12.9316 16.5296 13.2876L17.4186 18.2076C17.4936 18.6246 17.3176 19.0466 16.9686 19.2876C16.6266 19.5376 16.1716 19.5676 15.7986 19.3676L11.3696 17.0576C11.2156 16.9756 11.0446 16.9316 10.8696 16.9266H10.5986C10.5046 16.9406 10.4126 16.9706 10.3286 17.0166L5.89856 19.3376C5.67956 19.4476 5.43156 19.4866 5.18856 19.4476C4.59656 19.3356 4.20156 18.7716 4.29856 18.1766L5.18856 13.2566C5.24756 12.8976 5.12856 12.5326 4.86956 12.2776L1.25856 8.77756C0.956563 8.48456 0.851563 8.04456 0.989563 7.64756C1.12356 7.25156 1.46556 6.96256 1.87856 6.89756L6.84856 6.17656C7.22656 6.13756 7.55856 5.90756 7.72856 5.56756L9.91856 1.07756C9.97056 0.977559 10.0376 0.885559 10.1186 0.807559L10.2086 0.737559C10.2556 0.685559 10.3096 0.642559 10.3696 0.607559L10.4786 0.567559L10.6486 0.497559H11.0696C11.4456 0.536559 11.7766 0.761559 11.9496 1.09756L14.1686 5.56756C14.3286 5.89456 14.6396 6.12156 14.9986 6.17656L19.9686 6.89756C20.3886 6.95756 20.7396 7.24756 20.8786 7.64756C21.0096 8.04856 20.8966 8.48856 20.5886 8.77756L16.8486 12.3176Z" fill="#69D3FA"/>
</svg>
