<svg width="465" height="465" viewBox="0 0 465 465" fill="none" xmlns="http://www.w3.org/2000/svg">
<path d="M240.154 4.10737L258.431 28.91C261.414 32.96 267.096 33.8613 271.186 30.9293L296.234 12.9834C301.271 9.37821 308.361 11.6771 310.312 17.5583L320.026 46.7988C321.612 51.5734 326.74 54.186 331.532 52.6629L360.898 43.3363C366.802 41.4596 372.832 45.8405 372.872 52.0354L373.077 82.8447C373.111 87.876 377.178 91.9432 382.21 91.9774L413.019 92.1828C419.214 92.2227 423.595 98.2522 421.718 104.156L412.391 133.522C410.868 138.314 413.481 143.442 418.256 145.028L447.496 154.743C453.372 156.693 455.676 163.784 452.071 168.821L434.125 193.869C431.199 197.959 432.094 203.64 436.145 206.624L460.947 224.9C465.933 228.574 465.933 236.03 460.947 239.703L436.145 257.98C432.094 260.963 431.193 266.645 434.125 270.735L452.071 295.783C455.676 300.82 453.377 307.91 447.496 309.861L418.256 319.576C413.481 321.162 410.868 326.29 412.391 331.082L421.718 360.448C423.595 366.352 419.214 372.381 413.019 372.421L382.21 372.626C377.178 372.661 373.111 376.728 373.077 381.759L372.872 412.568C372.832 418.763 366.802 423.144 360.898 421.268L331.532 411.941C326.74 410.418 321.612 413.03 320.026 417.805L310.312 447.046C308.361 452.921 301.271 455.226 296.234 451.62L271.186 433.674C267.096 430.748 261.414 431.644 258.431 435.694L240.154 460.496C236.48 465.482 229.025 465.482 225.351 460.496L207.074 435.694C204.091 431.644 198.409 430.742 194.319 433.674L169.271 451.62C164.235 455.226 157.144 452.927 155.193 447.046L145.479 417.805C143.893 413.03 138.765 410.418 133.973 411.941L104.607 421.268C98.7029 423.144 92.6734 418.763 92.6335 412.568L92.428 381.759C92.3938 376.728 88.3266 372.661 83.2953 372.626L52.4861 372.421C46.2911 372.381 41.9102 366.352 43.7869 360.448L53.1136 331.082C54.6367 326.29 52.0241 321.162 47.2495 319.576L18.0089 309.861C12.1334 307.91 9.82885 300.82 13.434 295.783L31.3799 270.735C34.3063 266.645 33.4107 260.963 29.3606 257.98L4.55806 239.703C-0.427556 236.03 -0.427556 228.574 4.55806 224.9L29.3606 206.624C33.4107 203.64 34.312 197.959 31.3799 193.869L13.434 168.821C9.82885 163.784 12.1277 156.693 18.0089 154.743L47.2495 145.028C52.0241 143.442 54.6367 138.314 53.1136 133.522L43.7869 104.156C41.9102 98.2522 46.2911 92.2227 52.4861 92.1828L83.2953 91.9774C88.3266 91.9432 92.3938 87.876 92.428 82.8447L92.6335 52.0354C92.6734 45.8405 98.7029 41.4596 104.607 43.3363L133.973 52.6629C138.765 54.186 143.893 51.5734 145.479 46.7988L155.193 17.5583C157.144 11.6828 164.235 9.37821 169.271 12.9834L194.319 30.9293C198.409 33.8556 204.091 32.96 207.074 28.91L225.351 4.10737C229.025 -0.87824 236.48 -0.87824 240.154 4.10737Z" fill="#E4086F"/>
<path d="M324.698 154.269C317.459 148.228 306.655 149.204 300.614 156.437L206.995 268.596L164.069 224.131C160.721 220.662 156.243 218.917 151.765 218.917C147.287 218.917 143.203 220.508 139.888 223.708C133.106 230.257 132.912 241.107 139.46 247.889L200.366 310.98C202.556 313.244 205.494 314.431 208.643 314.317C211.792 314.202 214.638 312.811 216.658 310.392L233.628 290.067L326.872 178.359C332.913 171.12 331.943 160.316 324.704 154.275L324.698 154.269Z" fill="white"/>
</svg>
