<svg width="68" height="41" viewBox="0 0 68 41" fill="none" xmlns="http://www.w3.org/2000/svg">
<path id="Vector" d="M45.203 20.5012C44.8996 20.7248 44.5936 20.9449 44.285 21.1614C41.9447 22.8189 38.5532 23.9522 34.1417 23.9522H33.847C29.4383 23.9522 26.0412 22.8189 23.7037 21.1614L22.7857 20.5012C23.0369 20.3142 23.3429 20.0932 23.7037 19.8382C26.0412 18.1835 29.4383 17.0474 33.847 17.0474H34.1417C38.5532 17.0474 41.9503 18.1835 44.285 19.8382C44.6477 20.0913 44.9518 20.3123 45.203 20.5012ZM68 6.84736C68 6.84736 65.9912 5.31453 59.6417 2.97986C54.0657 0.937027 49.861 0.478027 49.861 0.478027L49.878 12.4999C49.878 14.1942 49.419 15.7384 48.127 17.5007C43.3897 15.7724 38.9073 14.7099 34.0142 14.7099C29.1182 14.7099 24.6415 15.7724 19.9042 17.5007C18.6093 15.7469 18.1475 14.1914 18.1475 12.4999L18.1673 0.478027C18.1673 0.478027 13.9343 0.93136 8.3555 2.97986C2.00883 5.32019 0 6.84736 0 6.84736C0.2635 12.3044 5.04333 17.155 12.5658 20.504C5.03483 23.8445 0.255 28.681 0 34.1522C0 34.1522 2.00883 35.6822 8.3555 38.0197C13.9315 40.0625 18.139 40.5215 18.139 40.5215L18.1192 28.4969C18.1192 26.8054 18.5838 25.2584 19.873 23.4989C24.6103 25.2272 29.087 26.284 33.983 26.284C38.8762 26.284 43.3585 25.2244 48.093 23.4989C49.3878 25.2555 49.8497 26.8054 49.8497 28.4969L49.8327 40.5215C49.8327 40.5215 54.0373 40.0682 59.6133 38.0197C65.9628 35.6794 67.9717 34.1522 67.9717 34.1522C67.7082 28.6924 62.9283 23.8389 55.4058 20.4984C62.934 17.1494 67.711 12.3157 67.9717 6.84169" fill="white"/>
</svg>
