<svg width="25" height="25" viewBox="0 0 25 25" fill="none" xmlns="http://www.w3.org/2000/svg">
<path fill-rule="evenodd" clip-rule="evenodd" d="M3.09375 10.4572C3.09375 7.4432 5.73933 5.12134 8.84259 5.12134C10.4422 5.12134 11.851 5.87148 12.8612 6.84264C13.8714 5.87148 15.2791 5.12134 16.8798 5.12134C19.9831 5.12134 22.6286 7.4432 22.6286 10.4572C22.6286 12.5223 21.7479 14.3373 20.5278 15.8733C19.3111 17.4049 17.717 18.7053 16.1922 19.7625C15.6084 20.1665 15.0201 20.5383 14.4798 20.8129C13.9741 21.0707 13.3914 21.3074 12.8612 21.3074C12.331 21.3074 11.7494 21.0707 11.2426 20.8129C10.6499 20.5003 10.0783 20.1494 9.53133 19.7625C8.00538 18.7053 6.41245 17.4049 5.19459 15.8733C3.97449 14.3373 3.09375 12.5223 3.09375 10.4572ZM8.84259 6.79576C6.52073 6.79576 4.76817 8.50366 4.76817 10.4572C4.76817 12.0233 5.43347 13.4823 6.5051 14.8307C7.57896 16.1814 9.02454 17.3747 10.4846 18.3861C11.0372 18.769 11.5563 19.0938 12.0028 19.3215C12.4805 19.5649 12.7574 19.633 12.8612 19.633C12.965 19.633 13.2418 19.5649 13.7207 19.3204C14.2464 19.042 14.7535 18.7299 15.2389 18.3861C16.6978 17.3747 18.1434 16.1825 19.2173 14.8307C20.2889 13.4823 20.9542 12.0233 20.9542 10.4572C20.9542 8.50366 19.2017 6.79576 16.8798 6.79576C15.547 6.79576 14.3012 7.59166 13.5254 8.60301C13.4472 8.70489 13.3466 8.78741 13.2315 8.84421C13.1163 8.901 12.9896 8.93054 12.8612 8.93054C12.7328 8.93054 12.6061 8.901 12.4909 8.84421C12.3757 8.78741 12.2752 8.70489 12.197 8.60301C11.4212 7.59166 10.1765 6.79576 8.84259 6.79576Z" fill="white"/>
</svg>
