<svg width="25" height="25" viewBox="0 0 25 25" fill="none" xmlns="http://www.w3.org/2000/svg">
<g id="basil:heart-outline">
<path id="Vector" fill-rule="evenodd" clip-rule="evenodd" d="M3.0957 10.4573C3.0957 7.44332 5.74128 5.12146 8.84454 5.12146C10.4442 5.12146 11.8529 5.8716 12.8631 6.84276C13.8734 5.8716 15.281 5.12146 16.8817 5.12146C19.985 5.12146 22.6306 7.44332 22.6306 10.4573C22.6306 12.5224 21.7498 14.3375 20.5297 15.8735C19.313 17.405 17.719 18.7055 16.1941 19.7626C15.6103 20.1667 15.022 20.5384 14.4817 20.813C13.9761 21.0709 13.3934 21.3075 12.8631 21.3075C12.3329 21.3075 11.7513 21.0709 11.2445 20.813C10.6519 20.5005 10.0802 20.1496 9.53328 19.7626C8.00733 18.7055 6.4144 17.405 5.19654 15.8735C3.97645 14.3375 3.0957 12.5224 3.0957 10.4573ZM8.84454 6.79588C6.52268 6.79588 4.77012 8.50379 4.77012 10.4573C4.77012 12.0234 5.43542 13.4824 6.50705 14.8309C7.58091 16.1816 9.02649 17.3749 10.4866 18.3862C11.0391 18.7691 11.5582 19.0939 12.0047 19.3216C12.4825 19.565 12.7593 19.6331 12.8631 19.6331C12.967 19.6331 13.2438 19.565 13.7227 19.3205C14.2484 19.0422 14.7555 18.7301 15.2408 18.3862C16.6998 17.3749 18.1454 16.1827 19.2192 14.8309C20.2909 13.4824 20.9562 12.0234 20.9562 10.4573C20.9562 8.50379 19.2036 6.79588 16.8817 6.79588C15.5489 6.79588 14.3031 7.59179 13.5273 8.60314C13.4492 8.70501 13.3486 8.78753 13.2334 8.84433C13.1182 8.90112 12.9916 8.93066 12.8631 8.93066C12.7347 8.93066 12.608 8.90112 12.4929 8.84433C12.3777 8.78753 12.2771 8.70501 12.199 8.60314C11.4231 7.59179 10.1785 6.79588 8.84454 6.79588Z" fill="#393939"/>
</g>
</svg>
