<svg width="84" height="35" viewBox="0 0 84 35" fill="none" xmlns="http://www.w3.org/2000/svg">
<path id="Vector" d="M29.967 0L29.974 0.0210001L39.753 26.6945V1.3895H35.728V1.1445H49.588C56.2485 1.1445 60.8965 4.5605 60.8965 9.457C60.8965 13.027 57.7115 15.995 52.976 16.8385L52.1045 16.947L52.9795 17.038C55.853 17.367 58.135 18.249 59.752 19.663L59.7625 19.6735L66.9935 0H67.2385L67.2455 0.0210001L79.6915 33.964H84V34.209H70.287V33.964H74.326L70.231 22.8025H61.9255V22.8095L61.971 22.939C62.3 23.9225 62.468 24.955 62.4575 25.9945V30.1805C62.4575 32.333 63.406 34.5135 65.2225 34.5135C66.2865 34.5135 67.137 34.139 68.152 33.2115L68.2955 33.3445C67.1965 34.5065 65.863 35 63.8645 35C62.3595 35 61.0645 34.636 60.0285 33.922L59.8325 33.782C58.4675 32.746 57.5785 31.059 57.197 28.7595L57.134 28.3885L57.071 27.8285L57.064 27.7305L54.775 33.9605H58.023V34.2055H51.226V33.9605H54.509L57.022 27.1215V27.104C56.9952 26.7009 56.98 26.297 56.9765 25.893V22.904C56.9765 19.2325 54.2465 17.129 49.4865 17.129H44.807V33.964H48.86V34.209H33.0155V33.964H37.0545L32.9595 22.8025H21.602L17.549 33.8415L17.717 33.8135C23.0405 32.8965 25.487 28.833 25.522 24.556H25.767V34.209H0L19.1275 1.3895H11.438C5.061 1.3895 2.177 6.314 2.1315 11.2245H1.89V1.1445H25.109L24.969 1.3895L5.9815 33.964H15.9705C16.2178 33.964 16.4652 33.9535 16.7125 33.9325L16.9645 33.9115L17.2795 33.8765L29.7185 0H29.967ZM64.5575 7.3325L59.962 19.8485L59.9865 19.873L60.221 20.104C60.8965 20.7935 61.4355 21.609 61.803 22.498L61.8275 22.5575H70.14L64.5575 7.3325ZM27.2895 7.3325L21.693 22.5575H32.872L27.2895 7.3325ZM48.3805 1.3895H44.8105V16.884H49.4865C54.222 16.884 55.671 15.1585 55.671 9.5095C55.671 4.2 53.151 1.3895 48.3805 1.3895Z" fill="black"/>
</svg>
